G04*
G04 #@! TF.GenerationSoftware,Altium Limited,Altium Designer,23.5.1 (21)*
G04*
G04 Layer_Color=8421504*
%FSTAX25Y25*%
%MOIN*%
G70*
G04*
G04 #@! TF.SameCoordinates,9B770568-E4F1-4D74-AB79-8317BF9A6C96*
G04*
G04*
G04 #@! TF.FilePolarity,Positive*
G04*
G01*
G75*
%ADD14R,0.03150X0.02953*%
%ADD15R,0.08661X0.15748*%
%ADD16O,0.03937X0.01968*%
%ADD17R,0.05000X0.03500*%
%ADD18R,0.02953X0.03150*%
D14*
X0041978Y0008475D02*
D03*
X0041978Y000316D02*
D03*
X0008268Y0003628D02*
D03*
X0008268Y0008943D02*
D03*
X0031674Y0003109D02*
D03*
X0031674Y0008424D02*
D03*
X0013287Y0003628D02*
D03*
X0013287Y0008943D02*
D03*
X0036792Y0003109D02*
D03*
X0036792Y0008424D02*
D03*
X0047244Y000316D02*
D03*
X0047244Y0008475D02*
D03*
X0026319Y0003109D02*
D03*
X0026319Y0008424D02*
D03*
X0003217Y0008943D02*
D03*
X0003217Y0003628D02*
D03*
D15*
X0050687Y0027865D02*
D03*
X0026673D02*
D03*
D16*
X0017165Y0017786D02*
D03*
Y0020345D02*
D03*
Y0022905D02*
D03*
Y0025464D02*
D03*
X0006536Y0017786D02*
D03*
Y0020345D02*
D03*
Y0022905D02*
D03*
Y0025464D02*
D03*
D17*
X0019882Y0003109D02*
D03*
Y0009747D02*
D03*
D18*
X001437Y0038495D02*
D03*
X0009055Y0038495D02*
D03*
X0003248Y0033279D02*
D03*
X0008563Y0033279D02*
D03*
X001378Y0033279D02*
D03*
X0019094Y0033279D02*
D03*
M02*
