G04*
G04 #@! TF.GenerationSoftware,Altium Limited,Altium Designer,23.5.1 (21)*
G04*
G04 Layer_Color=128*
%FSTAX25Y25*%
%MOIN*%
G70*
G04*
G04 #@! TF.SameCoordinates,9B770568-E4F1-4D74-AB79-8317BF9A6C96*
G04*
G04*
G04 #@! TF.FilePolarity,Positive*
G04*
G01*
G75*
%ADD11C,0.00500*%
D11*
X0005801Y0013397D02*
X0007376D01*
X0006589Y0012609D02*
Y0014184D01*
X0010138Y0013397D02*
X0011713D01*
X0010925Y0012609D02*
Y0014184D01*
X0043799Y000316D02*
X0045374D01*
X0044587Y0002373D02*
Y0003948D01*
X0022658Y0003109D02*
X0024232D01*
X0023445Y0002322D02*
Y0003897D01*
X0010031Y0022387D02*
X0011605D01*
X0010818Y00216D02*
Y0023174D01*
X0011988Y0020911D02*
X0013563D01*
X0012775Y0020123D02*
Y0021698D01*
X0025591Y0016841D02*
X0027165D01*
X0026378Y0016054D02*
Y0017629D01*
X0029035Y0016841D02*
X003061D01*
X0029823Y0016054D02*
Y0017629D01*
X0001763Y0020345D02*
X0003337D01*
X000255Y0019558D02*
Y0021133D01*
X0015274Y0014589D02*
X0016849D01*
X0016062Y0013801D02*
Y0015376D01*
X0019291Y0014578D02*
X0020866D01*
X0020079Y001379D02*
Y0015365D01*
X0017913Y0038495D02*
X0019488D01*
X0018701Y0037708D02*
Y0039282D01*
X0004036Y0038495D02*
X000561D01*
X0004823Y0037708D02*
Y0039282D01*
X0011988Y0026462D02*
X0013563D01*
X0012775Y0025675D02*
Y002725D01*
X0010031Y0028627D02*
X0011605D01*
X0010818Y002784D02*
Y0029415D01*
M02*
