G04*
G04 #@! TF.GenerationSoftware,Altium Limited,Altium Designer,23.5.1 (21)*
G04*
G04 Layer_Color=65535*
%FSTAX25Y25*%
%MOIN*%
G70*
G04*
G04 #@! TF.SameCoordinates,9B770568-E4F1-4D74-AB79-8317BF9A6C96*
G04*
G04*
G04 #@! TF.FilePolarity,Positive*
G04*
G01*
G75*
%ADD10C,0.00984*%
%ADD11C,0.00500*%
%ADD12C,0.00787*%
%ADD13C,0.00800*%
D10*
X0017658Y0014637D02*
G03*
X0017658Y0014637I-0000492J0D01*
G01*
D11*
X0043317Y0006211D02*
X0043317Y0005424D01*
X004064Y0006211D02*
X004064Y0005424D01*
X0053051Y0036727D02*
Y0040664D01*
X0024311D02*
X0053051D01*
X0024311Y0015074D02*
X0053051D01*
X0024311Y0036727D02*
Y0040664D01*
X0053051Y0015074D02*
Y0019011D01*
X0024311Y0015074D02*
Y0019011D01*
X0006929Y0006679D02*
X0006929Y0005892D01*
X0009606Y000668D02*
X0009606Y0005892D01*
X0030335Y000616D02*
X0030335Y0005373D01*
X0033013Y000616D02*
X0033013Y0005373D01*
X0011949Y0006679D02*
X0011949Y0005892D01*
X0014626Y000668D02*
X0014626Y0005892D01*
X0035454Y000616D02*
X0035454Y0005373D01*
X0038131Y000616D02*
X0038131Y0005373D01*
X0045906Y0006211D02*
X0045906Y0005424D01*
X0048583Y0006211D02*
X0048583Y0005424D01*
X002498Y000616D02*
X002498Y0005373D01*
X0027657Y000616D02*
X0027658Y0005373D01*
X0016988Y0000936D02*
Y0004007D01*
Y0000936D02*
X0022815D01*
Y0004007D01*
X0022795Y0008849D02*
Y001192D01*
X0016969D02*
X0022795D01*
X0016969Y0008849D02*
Y001192D01*
X0011319Y0037157D02*
X0012106Y0037157D01*
X0011319Y0039834D02*
X0012106Y0039834D01*
X0005512Y0034617D02*
X0006299Y0034617D01*
X0005512Y003194D02*
X0006299Y003194D01*
X0016043Y0034617D02*
X0016831Y0034617D01*
X0016043Y003194D02*
X0016831Y003194D01*
X0004556Y000668D02*
X0004556Y0005892D01*
X0001879Y000668D02*
X0001879Y0005892D01*
D12*
X0013622Y001572D02*
Y0027531D01*
X0010079Y001572D02*
Y0027531D01*
Y001572D02*
X0013622D01*
X0010079Y0027531D02*
X0013622D01*
D13*
X0017113Y0005168D02*
Y0007668D01*
X0022652Y0005168D02*
Y0007668D01*
M02*
