G04*
G04 #@! TF.GenerationSoftware,Altium Limited,Altium Designer,23.5.1 (21)*
G04*
G04 Layer_Color=8388736*
%FSTAX25Y25*%
%MOIN*%
G70*
G04*
G04 #@! TF.SameCoordinates,9B770568-E4F1-4D74-AB79-8317BF9A6C96*
G04*
G04*
G04 #@! TF.FilePolarity,Negative*
G04*
G01*
G75*
%ADD19R,0.03950X0.03753*%
%ADD20R,0.09461X0.16548*%
%ADD21O,0.04737X0.02769*%
%ADD22R,0.05800X0.04300*%
%ADD23R,0.03753X0.03950*%
D19*
X0041978Y0008475D02*
D03*
X0041978Y000316D02*
D03*
X0008268Y0003628D02*
D03*
X0008268Y0008943D02*
D03*
X0031674Y0003109D02*
D03*
X0031674Y0008424D02*
D03*
X0013287Y0003628D02*
D03*
X0013287Y0008943D02*
D03*
X0036792Y0003109D02*
D03*
X0036792Y0008424D02*
D03*
X0047244Y000316D02*
D03*
X0047244Y0008475D02*
D03*
X0026319Y0003109D02*
D03*
X0026319Y0008424D02*
D03*
X0003217Y0008943D02*
D03*
X0003217Y0003628D02*
D03*
D20*
X0050687Y0027865D02*
D03*
X0026673D02*
D03*
D21*
X0017165Y0017786D02*
D03*
Y0020345D02*
D03*
Y0022905D02*
D03*
Y0025464D02*
D03*
X0006536Y0017786D02*
D03*
Y0020345D02*
D03*
Y0022905D02*
D03*
Y0025464D02*
D03*
D22*
X0019882Y0003109D02*
D03*
Y0009747D02*
D03*
D23*
X001437Y0038495D02*
D03*
X0009055Y0038495D02*
D03*
X0003248Y0033279D02*
D03*
X0008563Y0033279D02*
D03*
X001378Y0033279D02*
D03*
X0019094Y0033279D02*
D03*
M02*
