G04*
G04 #@! TF.GenerationSoftware,Altium Limited,Altium Designer,23.5.1 (21)*
G04*
G04 Layer_Color=65535*
%FSTAX25Y25*%
%MOIN*%
G70*
G04*
G04 #@! TF.SameCoordinates,755BC27C-C67A-4D62-9883-C884FE973DC9*
G04*
G04*
G04 #@! TF.FilePolarity,Positive*
G04*
G01*
G75*
%ADD10C,0.00787*%
%ADD42C,0.00984*%
%ADD43C,0.00500*%
%ADD44C,0.00800*%
D10*
X0010079Y0047216D02*
X0013622D01*
X0010079Y0035405D02*
X0013622D01*
X0010079D02*
Y0047216D01*
X0013622Y0035405D02*
Y0047216D01*
X0066575D02*
X0070118D01*
X0066575Y0035405D02*
X0070118D01*
X0066575D02*
Y0047216D01*
X0070118Y0035405D02*
Y0047216D01*
X0123071D02*
X0126614D01*
X0123071Y0035405D02*
X0126614D01*
X0123071D02*
Y0047216D01*
X0126614Y0035405D02*
Y0047216D01*
X0179567D02*
X0183111D01*
X0179567Y0035405D02*
X0183111D01*
X0179567D02*
Y0047216D01*
X0183111Y0035405D02*
Y0047216D01*
X0236063D02*
X0239607D01*
X0236063Y0035405D02*
X0239607D01*
X0236063D02*
Y0047216D01*
X0239607Y0035405D02*
Y0047216D01*
X0010079Y0088651D02*
X0013622D01*
X0010079Y007684D02*
X0013622D01*
X0010079D02*
Y0088651D01*
X0013622Y007684D02*
Y0088651D01*
X0066575D02*
X0070118D01*
X0066575Y007684D02*
X0070118D01*
X0066575D02*
Y0088651D01*
X0070118Y007684D02*
Y0088651D01*
X0123071D02*
X0126614D01*
X0123071Y007684D02*
X0126614D01*
X0123071D02*
Y0088651D01*
X0126614Y007684D02*
Y0088651D01*
X0179567D02*
X0183111D01*
X0179567Y007684D02*
X0183111D01*
X0179567D02*
Y0088651D01*
X0183111Y007684D02*
Y0088651D01*
X0236063D02*
X0239607D01*
X0236063Y007684D02*
X0239607D01*
X0236063D02*
Y0088651D01*
X0239607Y007684D02*
Y0088651D01*
X0010079Y0130087D02*
X0013622D01*
X0010079Y0118276D02*
X0013622D01*
X0010079D02*
Y0130087D01*
X0013622Y0118276D02*
Y0130087D01*
X0066575D02*
X0070118D01*
X0066575Y0118276D02*
X0070118D01*
X0066575D02*
Y0130087D01*
X0070118Y0118276D02*
Y0130087D01*
X0123071D02*
X0126614D01*
X0123071Y0118276D02*
X0126614D01*
X0123071D02*
Y0130087D01*
X0126614Y0118276D02*
Y0130087D01*
X0179567D02*
X0183111D01*
X0179567Y0118276D02*
X0183111D01*
X0179567D02*
Y0130087D01*
X0183111Y0118276D02*
Y0130087D01*
X0236063D02*
X0239607D01*
X0236063Y0118276D02*
X0239607D01*
X0236063D02*
Y0130087D01*
X0239607Y0118276D02*
Y0130087D01*
X0010079Y0171523D02*
X0013622D01*
X0010079Y0159712D02*
X0013622D01*
X0010079D02*
Y0171523D01*
X0013622Y0159712D02*
Y0171523D01*
X0066575D02*
X0070118D01*
X0066575Y0159712D02*
X0070118D01*
X0066575D02*
Y0171523D01*
X0070118Y0159712D02*
Y0171523D01*
X0123071D02*
X0126614D01*
X0123071Y0159712D02*
X0126614D01*
X0123071D02*
Y0171523D01*
X0126614Y0159712D02*
Y0171523D01*
X0179567D02*
X0183111D01*
X0179567Y0159712D02*
X0183111D01*
X0179567D02*
Y0171523D01*
X0183111Y0159712D02*
Y0171523D01*
X0236063D02*
X0239607D01*
X0236063Y0159712D02*
X0239607D01*
X0236063D02*
Y0171523D01*
X0239607Y0159712D02*
Y0171523D01*
X0010079Y0212958D02*
X0013622D01*
X0010079Y0201147D02*
X0013622D01*
X0010079D02*
Y0212958D01*
X0013622Y0201147D02*
Y0212958D01*
X0066575D02*
X0070118D01*
X0066575Y0201147D02*
X0070118D01*
X0066575D02*
Y0212958D01*
X0070118Y0201147D02*
Y0212958D01*
X0123071D02*
X0126614D01*
X0123071Y0201147D02*
X0126614D01*
X0123071D02*
Y0212958D01*
X0126614Y0201147D02*
Y0212958D01*
X0179567D02*
X0183111D01*
X0179567Y0201147D02*
X0183111D01*
X0179567D02*
Y0212958D01*
X0183111Y0201147D02*
Y0212958D01*
X0236063D02*
X0239607D01*
X0236063Y0201147D02*
X0239607D01*
X0236063D02*
Y0212958D01*
X0239607Y0201147D02*
Y0212958D01*
X0010079Y0254394D02*
X0013622D01*
X0010079Y0242583D02*
X0013622D01*
X0010079D02*
Y0254394D01*
X0013622Y0242583D02*
Y0254394D01*
X0066575D02*
X0070118D01*
X0066575Y0242583D02*
X0070118D01*
X0066575D02*
Y0254394D01*
X0070118Y0242583D02*
Y0254394D01*
X0123071D02*
X0126614D01*
X0123071Y0242583D02*
X0126614D01*
X0123071D02*
Y0254394D01*
X0126614Y0242583D02*
Y0254394D01*
X0179567D02*
X0183111D01*
X0179567Y0242583D02*
X0183111D01*
X0179567D02*
Y0254394D01*
X0183111Y0242583D02*
Y0254394D01*
X0236063D02*
X0239607D01*
X0236063Y0242583D02*
X0239607D01*
X0236063D02*
Y0254394D01*
X0239607Y0242583D02*
Y0254394D01*
D42*
X0017658Y0034322D02*
G03*
X0017658Y0034322I-0000492J0D01*
G01*
X0074154D02*
G03*
X0074154Y0034322I-0000492J0D01*
G01*
X013065D02*
G03*
X013065Y0034322I-0000492J0D01*
G01*
X0187146D02*
G03*
X0187146Y0034322I-0000492J0D01*
G01*
X0243642D02*
G03*
X0243642Y0034322I-0000492J0D01*
G01*
X0017658Y0075757D02*
G03*
X0017658Y0075757I-0000492J0D01*
G01*
X0074154D02*
G03*
X0074154Y0075757I-0000492J0D01*
G01*
X013065D02*
G03*
X013065Y0075757I-0000492J0D01*
G01*
X0187146D02*
G03*
X0187146Y0075757I-0000492J0D01*
G01*
X0243642D02*
G03*
X0243642Y0075757I-0000492J0D01*
G01*
X0017658Y0117193D02*
G03*
X0017658Y0117193I-0000492J0D01*
G01*
X0074154D02*
G03*
X0074154Y0117193I-0000492J0D01*
G01*
X013065D02*
G03*
X013065Y0117193I-0000492J0D01*
G01*
X0187146D02*
G03*
X0187146Y0117193I-0000492J0D01*
G01*
X0243642D02*
G03*
X0243642Y0117193I-0000492J0D01*
G01*
X0017658Y0158629D02*
G03*
X0017658Y0158629I-0000492J0D01*
G01*
X0074154D02*
G03*
X0074154Y0158629I-0000492J0D01*
G01*
X013065D02*
G03*
X013065Y0158629I-0000492J0D01*
G01*
X0187146D02*
G03*
X0187146Y0158629I-0000492J0D01*
G01*
X0243642D02*
G03*
X0243642Y0158629I-0000492J0D01*
G01*
X0017658Y0200065D02*
G03*
X0017658Y0200065I-0000492J0D01*
G01*
X0074154D02*
G03*
X0074154Y0200065I-0000492J0D01*
G01*
X013065D02*
G03*
X013065Y0200065I-0000492J0D01*
G01*
X0187146D02*
G03*
X0187146Y0200065I-0000492J0D01*
G01*
X0243642D02*
G03*
X0243642Y0200065I-0000492J0D01*
G01*
X0017658Y02415D02*
G03*
X0017658Y02415I-0000492J0D01*
G01*
X0074154D02*
G03*
X0074154Y02415I-0000492J0D01*
G01*
X013065D02*
G03*
X013065Y02415I-0000492J0D01*
G01*
X0187146D02*
G03*
X0187146Y02415I-0000492J0D01*
G01*
X0243642D02*
G03*
X0243642Y02415I-0000492J0D01*
G01*
D43*
X0016988Y0020621D02*
Y0023692D01*
Y0020621D02*
X0022815D01*
X0016969Y0028534D02*
Y0031605D01*
X0022795D01*
X0022815Y0020621D02*
Y0023692D01*
X0022795Y0028534D02*
Y0031605D01*
X0024311Y0034759D02*
Y0038696D01*
Y0034759D02*
X0053051D01*
X0024311Y0056412D02*
Y0060349D01*
X0053051Y0034759D02*
Y0038696D01*
X0024311Y0060349D02*
X0053051D01*
Y0056412D02*
Y0060349D01*
X0043317Y0025897D02*
X0043317Y0025109D01*
X004064Y0025897D02*
X004064Y0025109D01*
X0006929Y0026365D02*
X0006929Y0025577D01*
X0009606Y0026365D02*
X0009606Y0025577D01*
X0030335Y0025845D02*
X0030335Y0025058D01*
X0033013Y0025845D02*
X0033013Y0025058D01*
X0011949Y0026365D02*
X0011949Y0025577D01*
X0014626Y0026365D02*
X0014626Y0025577D01*
X0035454Y0025845D02*
X0035454Y0025058D01*
X0038131Y0025845D02*
X0038131Y0025058D01*
X0045906Y0025897D02*
X0045906Y0025109D01*
X0048583Y0025897D02*
X0048583Y0025109D01*
X002498Y0025845D02*
X002498Y0025058D01*
X0027657Y0025845D02*
X0027657Y0025058D01*
X0011319Y0056841D02*
X0012106Y0056841D01*
X0011319Y0059519D02*
X0012106Y0059519D01*
X0005512Y0054302D02*
X0006299Y0054302D01*
X0005512Y0051625D02*
X0006299Y0051625D01*
X0016043Y0054302D02*
X0016831Y0054302D01*
X0016043Y0051625D02*
X0016831Y0051625D01*
X0004556Y0026365D02*
X0004556Y0025577D01*
X0001879Y0026365D02*
X0001879Y0025577D01*
X0073484Y0020621D02*
Y0023692D01*
Y0020621D02*
X0079311D01*
X0073465Y0028534D02*
Y0031605D01*
X0079291D01*
X0079311Y0020621D02*
Y0023692D01*
X0079291Y0028534D02*
Y0031605D01*
X0080807Y0034759D02*
Y0038696D01*
Y0034759D02*
X0109547D01*
X0080807Y0056412D02*
Y0060349D01*
X0109547Y0034759D02*
Y0038696D01*
X0080807Y0060349D02*
X0109547D01*
Y0056412D02*
Y0060349D01*
X0099813Y0025897D02*
X0099813Y0025109D01*
X0097136Y0025897D02*
X0097136Y0025109D01*
X0063425Y0026365D02*
X0063425Y0025577D01*
X0066102Y0026365D02*
X0066102Y0025577D01*
X0086831Y0025845D02*
X0086831Y0025058D01*
X0089509Y0025845D02*
X0089509Y0025058D01*
X0068445Y0026365D02*
X0068445Y0025577D01*
X0071122Y0026365D02*
X0071122Y0025577D01*
X009195Y0025845D02*
X009195Y0025058D01*
X0094627Y0025845D02*
X0094627Y0025058D01*
X0102402Y0025897D02*
X0102402Y0025109D01*
X0105079Y0025897D02*
X0105079Y0025109D01*
X0081476Y0025845D02*
X0081476Y0025058D01*
X0084154Y0025845D02*
X0084154Y0025058D01*
X0067815Y0056841D02*
X0068603Y0056841D01*
X0067815Y0059519D02*
X0068603Y0059519D01*
X0062008Y0054302D02*
X0062795Y0054302D01*
X0062008Y0051625D02*
X0062795Y0051625D01*
X0072539Y0054302D02*
X0073327Y0054302D01*
X0072539Y0051625D02*
X0073327Y0051625D01*
X0061052Y0026365D02*
X0061052Y0025577D01*
X0058375Y0026365D02*
X0058375Y0025577D01*
X0129981Y0020621D02*
Y0023692D01*
Y0020621D02*
X0135807D01*
X0129961Y0028534D02*
Y0031605D01*
X0135788D01*
X0135807Y0020621D02*
Y0023692D01*
X0135788Y0028534D02*
Y0031605D01*
X0137303Y0034759D02*
Y0038696D01*
Y0034759D02*
X0166043D01*
X0137303Y0056412D02*
Y0060349D01*
X0166043Y0034759D02*
Y0038696D01*
X0137303Y0060349D02*
X0166043D01*
Y0056412D02*
Y0060349D01*
X0156309Y0025897D02*
X0156309Y0025109D01*
X0153632Y0025897D02*
X0153632Y0025109D01*
X0119922Y0026365D02*
X0119922Y0025577D01*
X0122599Y0026365D02*
X0122599Y0025577D01*
X0143328Y0025845D02*
X0143328Y0025058D01*
X0146005Y0025845D02*
X0146005Y0025058D01*
X0124941Y0026365D02*
X0124941Y0025577D01*
X0127618Y0026365D02*
X0127618Y0025577D01*
X0148446Y0025845D02*
X0148446Y0025058D01*
X0151123Y0025845D02*
X0151123Y0025058D01*
X0158898Y0025897D02*
X0158898Y0025109D01*
X0161575Y0025897D02*
X0161575Y0025109D01*
X0137973Y0025845D02*
X0137973Y0025058D01*
X014065Y0025845D02*
X014065Y0025058D01*
X0124311Y0056841D02*
X0125099Y0056841D01*
X0124311Y0059519D02*
X0125099Y0059519D01*
X0118504Y0054302D02*
X0119292Y0054302D01*
X0118504Y0051625D02*
X0119292Y0051625D01*
X0129036Y0054302D02*
X0129823Y0054302D01*
X0129036Y0051625D02*
X0129823Y0051625D01*
X0117548Y0026365D02*
X0117548Y0025577D01*
X0114871Y0026365D02*
X0114871Y0025577D01*
X0186477Y0020621D02*
Y0023692D01*
Y0020621D02*
X0192304D01*
X0186457Y0028534D02*
Y0031605D01*
X0192284D01*
X0192304Y0020621D02*
Y0023692D01*
X0192284Y0028534D02*
Y0031605D01*
X0193799Y0034759D02*
Y0038696D01*
Y0034759D02*
X022254D01*
X0193799Y0056412D02*
Y0060349D01*
X022254Y0034759D02*
Y0038696D01*
X0193799Y0060349D02*
X022254D01*
Y0056412D02*
Y0060349D01*
X0212806Y0025897D02*
X0212806Y0025109D01*
X0210128Y0025897D02*
X0210128Y0025109D01*
X0176418Y0026365D02*
X0176418Y0025577D01*
X0179095Y0026365D02*
X0179095Y0025577D01*
X0199824Y0025845D02*
X0199824Y0025058D01*
X0202501Y0025845D02*
X0202501Y0025058D01*
X0181437Y0026365D02*
X0181437Y0025577D01*
X0184115Y0026365D02*
X0184115Y0025577D01*
X0204942Y0025845D02*
X0204942Y0025058D01*
X0207619Y0025845D02*
X0207619Y0025058D01*
X0215394Y0025897D02*
X0215394Y0025109D01*
X0218071Y0025897D02*
X0218071Y0025109D01*
X0194469Y0025845D02*
X0194469Y0025058D01*
X0197146Y0025845D02*
X0197146Y0025058D01*
X0180807Y0056841D02*
X0181595Y0056841D01*
X0180807Y0059519D02*
X0181595Y0059519D01*
X0175Y0054302D02*
X0175788Y0054302D01*
X0175Y0051625D02*
X0175788Y0051625D01*
X0185532Y0054302D02*
X0186319Y0054302D01*
X0185532Y0051625D02*
X0186319Y0051625D01*
X0174044Y0026365D02*
X0174044Y0025577D01*
X0171367Y0026365D02*
X0171367Y0025577D01*
X0242973Y0020621D02*
Y0023692D01*
Y0020621D02*
X02488D01*
X0242953Y0028534D02*
Y0031605D01*
X024878D01*
X02488Y0020621D02*
Y0023692D01*
X024878Y0028534D02*
Y0031605D01*
X0250296Y0034759D02*
Y0038696D01*
Y0034759D02*
X0279036D01*
X0250296Y0056412D02*
Y0060349D01*
X0279036Y0034759D02*
Y0038696D01*
X0250296Y0060349D02*
X0279036D01*
Y0056412D02*
Y0060349D01*
X0269302Y0025897D02*
X0269302Y0025109D01*
X0266624Y0025897D02*
X0266624Y0025109D01*
X0232914Y0026365D02*
X0232914Y0025577D01*
X0235591Y0026365D02*
X0235591Y0025577D01*
X025632Y0025845D02*
X025632Y0025058D01*
X0258997Y0025845D02*
X0258997Y0025058D01*
X0237933Y0026365D02*
X0237933Y0025577D01*
X0240611Y0026365D02*
X0240611Y0025577D01*
X0261438Y0025845D02*
X0261438Y0025058D01*
X0264115Y0025845D02*
X0264115Y0025058D01*
X027189Y0025897D02*
X027189Y0025109D01*
X0274567Y0025897D02*
X0274567Y0025109D01*
X0250965Y0025845D02*
X0250965Y0025058D01*
X0253642Y0025845D02*
X0253642Y0025058D01*
X0237304Y0056841D02*
X0238091Y0056841D01*
X0237304Y0059519D02*
X0238091Y0059519D01*
X0231497Y0054302D02*
X0232284Y0054302D01*
X0231497Y0051625D02*
X0232284Y0051625D01*
X0242028Y0054302D02*
X0242815Y0054302D01*
X0242028Y0051625D02*
X0242815Y0051625D01*
X023054Y0026365D02*
X023054Y0025577D01*
X0227863Y0026365D02*
X0227863Y0025577D01*
X0016988Y0062057D02*
Y0065128D01*
Y0062057D02*
X0022815D01*
X0016969Y006997D02*
Y0073041D01*
X0022795D01*
X0022815Y0062057D02*
Y0065128D01*
X0022795Y006997D02*
Y0073041D01*
X0024311Y0076194D02*
Y0080131D01*
Y0076194D02*
X0053051D01*
X0024311Y0097848D02*
Y0101785D01*
X0053051Y0076194D02*
Y0080131D01*
X0024311Y0101785D02*
X0053051D01*
Y0097848D02*
Y0101785D01*
X0043317Y0067332D02*
X0043317Y0066545D01*
X004064Y0067332D02*
X004064Y0066545D01*
X0006929Y00678D02*
X0006929Y0067013D01*
X0009606Y00678D02*
X0009606Y0067013D01*
X0030335Y0067281D02*
X0030335Y0066494D01*
X0033013Y0067281D02*
X0033013Y0066494D01*
X0011949Y00678D02*
X0011949Y0067013D01*
X0014626Y00678D02*
X0014626Y0067013D01*
X0035454Y0067281D02*
X0035454Y0066494D01*
X0038131Y0067281D02*
X0038131Y0066494D01*
X0045906Y0067332D02*
X0045906Y0066545D01*
X0048583Y0067332D02*
X0048583Y0066545D01*
X002498Y0067281D02*
X002498Y0066494D01*
X0027657Y0067281D02*
X0027657Y0066494D01*
X0011319Y0098277D02*
X0012106Y0098277D01*
X0011319Y0100954D02*
X0012106Y0100954D01*
X0005512Y0095738D02*
X0006299Y0095738D01*
X0005512Y0093061D02*
X0006299Y0093061D01*
X0016043Y0095738D02*
X0016831Y0095738D01*
X0016043Y0093061D02*
X0016831Y0093061D01*
X0004556Y00678D02*
X0004556Y0067013D01*
X0001879Y00678D02*
X0001879Y0067013D01*
X0073484Y0062057D02*
Y0065128D01*
Y0062057D02*
X0079311D01*
X0073465Y006997D02*
Y0073041D01*
X0079291D01*
X0079311Y0062057D02*
Y0065128D01*
X0079291Y006997D02*
Y0073041D01*
X0080807Y0076194D02*
Y0080131D01*
Y0076194D02*
X0109547D01*
X0080807Y0097848D02*
Y0101785D01*
X0109547Y0076194D02*
Y0080131D01*
X0080807Y0101785D02*
X0109547D01*
Y0097848D02*
Y0101785D01*
X0099813Y0067332D02*
X0099813Y0066545D01*
X0097136Y0067332D02*
X0097136Y0066545D01*
X0063425Y00678D02*
X0063425Y0067013D01*
X0066102Y00678D02*
X0066102Y0067013D01*
X0086831Y0067281D02*
X0086831Y0066494D01*
X0089509Y0067281D02*
X0089509Y0066494D01*
X0068445Y00678D02*
X0068445Y0067013D01*
X0071122Y00678D02*
X0071122Y0067013D01*
X009195Y0067281D02*
X009195Y0066494D01*
X0094627Y0067281D02*
X0094627Y0066494D01*
X0102402Y0067332D02*
X0102402Y0066545D01*
X0105079Y0067332D02*
X0105079Y0066545D01*
X0081476Y0067281D02*
X0081476Y0066494D01*
X0084154Y0067281D02*
X0084154Y0066494D01*
X0067815Y0098277D02*
X0068603Y0098277D01*
X0067815Y0100954D02*
X0068603Y0100954D01*
X0062008Y0095738D02*
X0062795Y0095738D01*
X0062008Y0093061D02*
X0062795Y0093061D01*
X0072539Y0095738D02*
X0073327Y0095738D01*
X0072539Y0093061D02*
X0073327Y0093061D01*
X0061052Y00678D02*
X0061052Y0067013D01*
X0058375Y00678D02*
X0058375Y0067013D01*
X0129981Y0062057D02*
Y0065128D01*
Y0062057D02*
X0135807D01*
X0129961Y006997D02*
Y0073041D01*
X0135788D01*
X0135807Y0062057D02*
Y0065128D01*
X0135788Y006997D02*
Y0073041D01*
X0137303Y0076194D02*
Y0080131D01*
Y0076194D02*
X0166043D01*
X0137303Y0097848D02*
Y0101785D01*
X0166043Y0076194D02*
Y0080131D01*
X0137303Y0101785D02*
X0166043D01*
Y0097848D02*
Y0101785D01*
X0156309Y0067332D02*
X0156309Y0066545D01*
X0153632Y0067332D02*
X0153632Y0066545D01*
X0119922Y00678D02*
X0119922Y0067013D01*
X0122599Y00678D02*
X0122599Y0067013D01*
X0143328Y0067281D02*
X0143328Y0066494D01*
X0146005Y0067281D02*
X0146005Y0066494D01*
X0124941Y00678D02*
X0124941Y0067013D01*
X0127618Y00678D02*
X0127618Y0067013D01*
X0148446Y0067281D02*
X0148446Y0066494D01*
X0151123Y0067281D02*
X0151123Y0066494D01*
X0158898Y0067332D02*
X0158898Y0066545D01*
X0161575Y0067332D02*
X0161575Y0066545D01*
X0137973Y0067281D02*
X0137973Y0066494D01*
X014065Y0067281D02*
X014065Y0066494D01*
X0124311Y0098277D02*
X0125099Y0098277D01*
X0124311Y0100954D02*
X0125099Y0100954D01*
X0118504Y0095738D02*
X0119292Y0095738D01*
X0118504Y0093061D02*
X0119292Y0093061D01*
X0129036Y0095738D02*
X0129823Y0095738D01*
X0129036Y0093061D02*
X0129823Y0093061D01*
X0117548Y00678D02*
X0117548Y0067013D01*
X0114871Y00678D02*
X0114871Y0067013D01*
X0186477Y0062057D02*
Y0065128D01*
Y0062057D02*
X0192304D01*
X0186457Y006997D02*
Y0073041D01*
X0192284D01*
X0192304Y0062057D02*
Y0065128D01*
X0192284Y006997D02*
Y0073041D01*
X0193799Y0076194D02*
Y0080131D01*
Y0076194D02*
X022254D01*
X0193799Y0097848D02*
Y0101785D01*
X022254Y0076194D02*
Y0080131D01*
X0193799Y0101785D02*
X022254D01*
Y0097848D02*
Y0101785D01*
X0212806Y0067332D02*
X0212806Y0066545D01*
X0210128Y0067332D02*
X0210128Y0066545D01*
X0176418Y00678D02*
X0176418Y0067013D01*
X0179095Y00678D02*
X0179095Y0067013D01*
X0199824Y0067281D02*
X0199824Y0066494D01*
X0202501Y0067281D02*
X0202501Y0066494D01*
X0181437Y00678D02*
X0181437Y0067013D01*
X0184115Y00678D02*
X0184115Y0067013D01*
X0204942Y0067281D02*
X0204942Y0066494D01*
X0207619Y0067281D02*
X0207619Y0066494D01*
X0215394Y0067332D02*
X0215394Y0066545D01*
X0218071Y0067332D02*
X0218071Y0066545D01*
X0194469Y0067281D02*
X0194469Y0066494D01*
X0197146Y0067281D02*
X0197146Y0066494D01*
X0180807Y0098277D02*
X0181595Y0098277D01*
X0180807Y0100954D02*
X0181595Y0100954D01*
X0175Y0095738D02*
X0175788Y0095738D01*
X0175Y0093061D02*
X0175788Y0093061D01*
X0185532Y0095738D02*
X0186319Y0095738D01*
X0185532Y0093061D02*
X0186319Y0093061D01*
X0174044Y00678D02*
X0174044Y0067013D01*
X0171367Y00678D02*
X0171367Y0067013D01*
X0242973Y0062057D02*
Y0065128D01*
Y0062057D02*
X02488D01*
X0242953Y006997D02*
Y0073041D01*
X024878D01*
X02488Y0062057D02*
Y0065128D01*
X024878Y006997D02*
Y0073041D01*
X0250296Y0076194D02*
Y0080131D01*
Y0076194D02*
X0279036D01*
X0250296Y0097848D02*
Y0101785D01*
X0279036Y0076194D02*
Y0080131D01*
X0250296Y0101785D02*
X0279036D01*
Y0097848D02*
Y0101785D01*
X0269302Y0067332D02*
X0269302Y0066545D01*
X0266624Y0067332D02*
X0266624Y0066545D01*
X0232914Y00678D02*
X0232914Y0067013D01*
X0235591Y00678D02*
X0235591Y0067013D01*
X025632Y0067281D02*
X025632Y0066494D01*
X0258997Y0067281D02*
X0258997Y0066494D01*
X0237933Y00678D02*
X0237933Y0067013D01*
X0240611Y00678D02*
X0240611Y0067013D01*
X0261438Y0067281D02*
X0261438Y0066494D01*
X0264115Y0067281D02*
X0264115Y0066494D01*
X027189Y0067332D02*
X027189Y0066545D01*
X0274567Y0067332D02*
X0274567Y0066545D01*
X0250965Y0067281D02*
X0250965Y0066494D01*
X0253642Y0067281D02*
X0253642Y0066494D01*
X0237304Y0098277D02*
X0238091Y0098277D01*
X0237304Y0100954D02*
X0238091Y0100954D01*
X0231497Y0095738D02*
X0232284Y0095738D01*
X0231497Y0093061D02*
X0232284Y0093061D01*
X0242028Y0095738D02*
X0242815Y0095738D01*
X0242028Y0093061D02*
X0242815Y0093061D01*
X023054Y00678D02*
X023054Y0067013D01*
X0227863Y00678D02*
X0227863Y0067013D01*
X0016988Y0103492D02*
Y0106563D01*
Y0103492D02*
X0022815D01*
X0016969Y0111406D02*
Y0114477D01*
X0022795D01*
X0022815Y0103492D02*
Y0106563D01*
X0022795Y0111406D02*
Y0114477D01*
X0024311Y011763D02*
Y0121567D01*
Y011763D02*
X0053051D01*
X0024311Y0139284D02*
Y0143221D01*
X0053051Y011763D02*
Y0121567D01*
X0024311Y0143221D02*
X0053051D01*
Y0139284D02*
Y0143221D01*
X0043317Y0108768D02*
X0043317Y0107981D01*
X004064Y0108768D02*
X004064Y0107981D01*
X0006929Y0109236D02*
X0006929Y0108449D01*
X0009606Y0109236D02*
X0009606Y0108449D01*
X0030335Y0108717D02*
X0030335Y0107929D01*
X0033013Y0108717D02*
X0033013Y0107929D01*
X0011949Y0109236D02*
X0011949Y0108449D01*
X0014626Y0109236D02*
X0014626Y0108449D01*
X0035454Y0108717D02*
X0035454Y0107929D01*
X0038131Y0108717D02*
X0038131Y0107929D01*
X0045906Y0108768D02*
X0045906Y0107981D01*
X0048583Y0108768D02*
X0048583Y0107981D01*
X002498Y0108717D02*
X002498Y0107929D01*
X0027657Y0108717D02*
X0027657Y0107929D01*
X0011319Y0139713D02*
X0012106Y0139713D01*
X0011319Y014239D02*
X0012106Y014239D01*
X0005512Y0137174D02*
X0006299Y0137174D01*
X0005512Y0134496D02*
X0006299Y0134496D01*
X0016043Y0137174D02*
X0016831Y0137174D01*
X0016043Y0134496D02*
X0016831Y0134496D01*
X0004556Y0109236D02*
X0004556Y0108449D01*
X0001879Y0109236D02*
X0001879Y0108449D01*
X0073484Y0103492D02*
Y0106563D01*
Y0103492D02*
X0079311D01*
X0073465Y0111406D02*
Y0114477D01*
X0079291D01*
X0079311Y0103492D02*
Y0106563D01*
X0079291Y0111406D02*
Y0114477D01*
X0080807Y011763D02*
Y0121567D01*
Y011763D02*
X0109547D01*
X0080807Y0139284D02*
Y0143221D01*
X0109547Y011763D02*
Y0121567D01*
X0080807Y0143221D02*
X0109547D01*
Y0139284D02*
Y0143221D01*
X0099813Y0108768D02*
X0099813Y0107981D01*
X0097136Y0108768D02*
X0097136Y0107981D01*
X0063425Y0109236D02*
X0063425Y0108449D01*
X0066102Y0109236D02*
X0066102Y0108449D01*
X0086831Y0108717D02*
X0086831Y0107929D01*
X0089509Y0108717D02*
X0089509Y0107929D01*
X0068445Y0109236D02*
X0068445Y0108449D01*
X0071122Y0109236D02*
X0071122Y0108449D01*
X009195Y0108717D02*
X009195Y0107929D01*
X0094627Y0108717D02*
X0094627Y0107929D01*
X0102402Y0108768D02*
X0102402Y0107981D01*
X0105079Y0108768D02*
X0105079Y0107981D01*
X0081476Y0108717D02*
X0081476Y0107929D01*
X0084154Y0108717D02*
X0084154Y0107929D01*
X0067815Y0139713D02*
X0068603Y0139713D01*
X0067815Y014239D02*
X0068603Y014239D01*
X0062008Y0137174D02*
X0062795Y0137174D01*
X0062008Y0134496D02*
X0062795Y0134496D01*
X0072539Y0137174D02*
X0073327Y0137174D01*
X0072539Y0134496D02*
X0073327Y0134496D01*
X0061052Y0109236D02*
X0061052Y0108449D01*
X0058375Y0109236D02*
X0058375Y0108449D01*
X0129981Y0103492D02*
Y0106563D01*
Y0103492D02*
X0135807D01*
X0129961Y0111406D02*
Y0114477D01*
X0135788D01*
X0135807Y0103492D02*
Y0106563D01*
X0135788Y0111406D02*
Y0114477D01*
X0137303Y011763D02*
Y0121567D01*
Y011763D02*
X0166043D01*
X0137303Y0139284D02*
Y0143221D01*
X0166043Y011763D02*
Y0121567D01*
X0137303Y0143221D02*
X0166043D01*
Y0139284D02*
Y0143221D01*
X0156309Y0108768D02*
X0156309Y0107981D01*
X0153632Y0108768D02*
X0153632Y0107981D01*
X0119922Y0109236D02*
X0119922Y0108449D01*
X0122599Y0109236D02*
X0122599Y0108449D01*
X0143328Y0108717D02*
X0143328Y0107929D01*
X0146005Y0108717D02*
X0146005Y0107929D01*
X0124941Y0109236D02*
X0124941Y0108449D01*
X0127618Y0109236D02*
X0127618Y0108449D01*
X0148446Y0108717D02*
X0148446Y0107929D01*
X0151123Y0108717D02*
X0151123Y0107929D01*
X0158898Y0108768D02*
X0158898Y0107981D01*
X0161575Y0108768D02*
X0161575Y0107981D01*
X0137973Y0108717D02*
X0137973Y0107929D01*
X014065Y0108717D02*
X014065Y0107929D01*
X0124311Y0139713D02*
X0125099Y0139713D01*
X0124311Y014239D02*
X0125099Y014239D01*
X0118504Y0137174D02*
X0119292Y0137174D01*
X0118504Y0134496D02*
X0119292Y0134496D01*
X0129036Y0137174D02*
X0129823Y0137174D01*
X0129036Y0134496D02*
X0129823Y0134496D01*
X0117548Y0109236D02*
X0117548Y0108449D01*
X0114871Y0109236D02*
X0114871Y0108449D01*
X0186477Y0103492D02*
Y0106563D01*
Y0103492D02*
X0192304D01*
X0186457Y0111406D02*
Y0114477D01*
X0192284D01*
X0192304Y0103492D02*
Y0106563D01*
X0192284Y0111406D02*
Y0114477D01*
X0193799Y011763D02*
Y0121567D01*
Y011763D02*
X022254D01*
X0193799Y0139284D02*
Y0143221D01*
X022254Y011763D02*
Y0121567D01*
X0193799Y0143221D02*
X022254D01*
Y0139284D02*
Y0143221D01*
X0212806Y0108768D02*
X0212806Y0107981D01*
X0210128Y0108768D02*
X0210128Y0107981D01*
X0176418Y0109236D02*
X0176418Y0108449D01*
X0179095Y0109236D02*
X0179095Y0108449D01*
X0199824Y0108717D02*
X0199824Y0107929D01*
X0202501Y0108717D02*
X0202501Y0107929D01*
X0181437Y0109236D02*
X0181437Y0108449D01*
X0184115Y0109236D02*
X0184115Y0108449D01*
X0204942Y0108717D02*
X0204942Y0107929D01*
X0207619Y0108717D02*
X0207619Y0107929D01*
X0215394Y0108768D02*
X0215394Y0107981D01*
X0218071Y0108768D02*
X0218071Y0107981D01*
X0194469Y0108717D02*
X0194469Y0107929D01*
X0197146Y0108717D02*
X0197146Y0107929D01*
X0180807Y0139713D02*
X0181595Y0139713D01*
X0180807Y014239D02*
X0181595Y014239D01*
X0175Y0137174D02*
X0175788Y0137174D01*
X0175Y0134496D02*
X0175788Y0134496D01*
X0185532Y0137174D02*
X0186319Y0137174D01*
X0185532Y0134496D02*
X0186319Y0134496D01*
X0174044Y0109236D02*
X0174044Y0108449D01*
X0171367Y0109236D02*
X0171367Y0108449D01*
X0242973Y0103492D02*
Y0106563D01*
Y0103492D02*
X02488D01*
X0242953Y0111406D02*
Y0114477D01*
X024878D01*
X02488Y0103492D02*
Y0106563D01*
X024878Y0111406D02*
Y0114477D01*
X0250296Y011763D02*
Y0121567D01*
Y011763D02*
X0279036D01*
X0250296Y0139284D02*
Y0143221D01*
X0279036Y011763D02*
Y0121567D01*
X0250296Y0143221D02*
X0279036D01*
Y0139284D02*
Y0143221D01*
X0269302Y0108768D02*
X0269302Y0107981D01*
X0266624Y0108768D02*
X0266624Y0107981D01*
X0232914Y0109236D02*
X0232914Y0108449D01*
X0235591Y0109236D02*
X0235591Y0108449D01*
X025632Y0108717D02*
X025632Y0107929D01*
X0258997Y0108717D02*
X0258997Y0107929D01*
X0237933Y0109236D02*
X0237933Y0108449D01*
X0240611Y0109236D02*
X0240611Y0108449D01*
X0261438Y0108717D02*
X0261438Y0107929D01*
X0264115Y0108717D02*
X0264115Y0107929D01*
X027189Y0108768D02*
X027189Y0107981D01*
X0274567Y0108768D02*
X0274567Y0107981D01*
X0250965Y0108717D02*
X0250965Y0107929D01*
X0253642Y0108717D02*
X0253642Y0107929D01*
X0237304Y0139713D02*
X0238091Y0139713D01*
X0237304Y014239D02*
X0238091Y014239D01*
X0231497Y0137174D02*
X0232284Y0137174D01*
X0231497Y0134496D02*
X0232284Y0134496D01*
X0242028Y0137174D02*
X0242815Y0137174D01*
X0242028Y0134496D02*
X0242815Y0134496D01*
X023054Y0109236D02*
X023054Y0108449D01*
X0227863Y0109236D02*
X0227863Y0108449D01*
X0016988Y0144928D02*
Y0147999D01*
Y0144928D02*
X0022815D01*
X0016969Y0152841D02*
Y0155912D01*
X0022795D01*
X0022815Y0144928D02*
Y0147999D01*
X0022795Y0152841D02*
Y0155912D01*
X0024311Y0159066D02*
Y0163003D01*
Y0159066D02*
X0053051D01*
X0024311Y0180719D02*
Y0184656D01*
X0053051Y0159066D02*
Y0163003D01*
X0024311Y0184656D02*
X0053051D01*
Y0180719D02*
Y0184656D01*
X0043317Y0150204D02*
X0043317Y0149416D01*
X004064Y0150204D02*
X004064Y0149416D01*
X0006929Y0150672D02*
X0006929Y0149884D01*
X0009606Y0150672D02*
X0009606Y0149884D01*
X0030335Y0150153D02*
X0030335Y0149365D01*
X0033013Y0150153D02*
X0033013Y0149365D01*
X0011949Y0150672D02*
X0011949Y0149884D01*
X0014626Y0150672D02*
X0014626Y0149884D01*
X0035454Y0150153D02*
X0035454Y0149365D01*
X0038131Y0150153D02*
X0038131Y0149365D01*
X0045906Y0150204D02*
X0045906Y0149416D01*
X0048583Y0150204D02*
X0048583Y0149416D01*
X002498Y0150153D02*
X002498Y0149365D01*
X0027657Y0150153D02*
X0027657Y0149365D01*
X0011319Y0181149D02*
X0012106Y0181149D01*
X0011319Y0183826D02*
X0012106Y0183826D01*
X0005512Y0178609D02*
X0006299Y0178609D01*
X0005512Y0175932D02*
X0006299Y0175932D01*
X0016043Y0178609D02*
X0016831Y0178609D01*
X0016043Y0175932D02*
X0016831Y0175932D01*
X0004556Y0150672D02*
X0004556Y0149884D01*
X0001879Y0150672D02*
X0001879Y0149884D01*
X0073484Y0144928D02*
Y0147999D01*
Y0144928D02*
X0079311D01*
X0073465Y0152841D02*
Y0155912D01*
X0079291D01*
X0079311Y0144928D02*
Y0147999D01*
X0079291Y0152841D02*
Y0155912D01*
X0080807Y0159066D02*
Y0163003D01*
Y0159066D02*
X0109547D01*
X0080807Y0180719D02*
Y0184656D01*
X0109547Y0159066D02*
Y0163003D01*
X0080807Y0184656D02*
X0109547D01*
Y0180719D02*
Y0184656D01*
X0099813Y0150204D02*
X0099813Y0149416D01*
X0097136Y0150204D02*
X0097136Y0149416D01*
X0063425Y0150672D02*
X0063425Y0149884D01*
X0066102Y0150672D02*
X0066102Y0149884D01*
X0086831Y0150153D02*
X0086831Y0149365D01*
X0089509Y0150153D02*
X0089509Y0149365D01*
X0068445Y0150672D02*
X0068445Y0149884D01*
X0071122Y0150672D02*
X0071122Y0149884D01*
X009195Y0150153D02*
X009195Y0149365D01*
X0094627Y0150153D02*
X0094627Y0149365D01*
X0102402Y0150204D02*
X0102402Y0149416D01*
X0105079Y0150204D02*
X0105079Y0149416D01*
X0081476Y0150153D02*
X0081476Y0149365D01*
X0084154Y0150153D02*
X0084154Y0149365D01*
X0067815Y0181149D02*
X0068603Y0181149D01*
X0067815Y0183826D02*
X0068603Y0183826D01*
X0062008Y0178609D02*
X0062795Y0178609D01*
X0062008Y0175932D02*
X0062795Y0175932D01*
X0072539Y0178609D02*
X0073327Y0178609D01*
X0072539Y0175932D02*
X0073327Y0175932D01*
X0061052Y0150672D02*
X0061052Y0149884D01*
X0058375Y0150672D02*
X0058375Y0149884D01*
X0129981Y0144928D02*
Y0147999D01*
Y0144928D02*
X0135807D01*
X0129961Y0152841D02*
Y0155912D01*
X0135788D01*
X0135807Y0144928D02*
Y0147999D01*
X0135788Y0152841D02*
Y0155912D01*
X0137303Y0159066D02*
Y0163003D01*
Y0159066D02*
X0166043D01*
X0137303Y0180719D02*
Y0184656D01*
X0166043Y0159066D02*
Y0163003D01*
X0137303Y0184656D02*
X0166043D01*
Y0180719D02*
Y0184656D01*
X0156309Y0150204D02*
X0156309Y0149416D01*
X0153632Y0150204D02*
X0153632Y0149416D01*
X0119922Y0150672D02*
X0119922Y0149884D01*
X0122599Y0150672D02*
X0122599Y0149884D01*
X0143328Y0150153D02*
X0143328Y0149365D01*
X0146005Y0150153D02*
X0146005Y0149365D01*
X0124941Y0150672D02*
X0124941Y0149884D01*
X0127618Y0150672D02*
X0127618Y0149884D01*
X0148446Y0150153D02*
X0148446Y0149365D01*
X0151123Y0150153D02*
X0151123Y0149365D01*
X0158898Y0150204D02*
X0158898Y0149416D01*
X0161575Y0150204D02*
X0161575Y0149416D01*
X0137973Y0150153D02*
X0137973Y0149365D01*
X014065Y0150153D02*
X014065Y0149365D01*
X0124311Y0181149D02*
X0125099Y0181149D01*
X0124311Y0183826D02*
X0125099Y0183826D01*
X0118504Y0178609D02*
X0119292Y0178609D01*
X0118504Y0175932D02*
X0119292Y0175932D01*
X0129036Y0178609D02*
X0129823Y0178609D01*
X0129036Y0175932D02*
X0129823Y0175932D01*
X0117548Y0150672D02*
X0117548Y0149884D01*
X0114871Y0150672D02*
X0114871Y0149884D01*
X0186477Y0144928D02*
Y0147999D01*
Y0144928D02*
X0192304D01*
X0186457Y0152841D02*
Y0155912D01*
X0192284D01*
X0192304Y0144928D02*
Y0147999D01*
X0192284Y0152841D02*
Y0155912D01*
X0193799Y0159066D02*
Y0163003D01*
Y0159066D02*
X022254D01*
X0193799Y0180719D02*
Y0184656D01*
X022254Y0159066D02*
Y0163003D01*
X0193799Y0184656D02*
X022254D01*
Y0180719D02*
Y0184656D01*
X0212806Y0150204D02*
X0212806Y0149416D01*
X0210128Y0150204D02*
X0210128Y0149416D01*
X0176418Y0150672D02*
X0176418Y0149884D01*
X0179095Y0150672D02*
X0179095Y0149884D01*
X0199824Y0150153D02*
X0199824Y0149365D01*
X0202501Y0150153D02*
X0202501Y0149365D01*
X0181437Y0150672D02*
X0181437Y0149884D01*
X0184115Y0150672D02*
X0184115Y0149884D01*
X0204942Y0150153D02*
X0204942Y0149365D01*
X0207619Y0150153D02*
X0207619Y0149365D01*
X0215394Y0150204D02*
X0215394Y0149416D01*
X0218071Y0150204D02*
X0218071Y0149416D01*
X0194469Y0150153D02*
X0194469Y0149365D01*
X0197146Y0150153D02*
X0197146Y0149365D01*
X0180807Y0181149D02*
X0181595Y0181149D01*
X0180807Y0183826D02*
X0181595Y0183826D01*
X0175Y0178609D02*
X0175788Y0178609D01*
X0175Y0175932D02*
X0175788Y0175932D01*
X0185532Y0178609D02*
X0186319Y0178609D01*
X0185532Y0175932D02*
X0186319Y0175932D01*
X0174044Y0150672D02*
X0174044Y0149884D01*
X0171367Y0150672D02*
X0171367Y0149884D01*
X0242973Y0144928D02*
Y0147999D01*
Y0144928D02*
X02488D01*
X0242953Y0152841D02*
Y0155912D01*
X024878D01*
X02488Y0144928D02*
Y0147999D01*
X024878Y0152841D02*
Y0155912D01*
X0250296Y0159066D02*
Y0163003D01*
Y0159066D02*
X0279036D01*
X0250296Y0180719D02*
Y0184656D01*
X0279036Y0159066D02*
Y0163003D01*
X0250296Y0184656D02*
X0279036D01*
Y0180719D02*
Y0184656D01*
X0269302Y0150204D02*
X0269302Y0149416D01*
X0266624Y0150204D02*
X0266624Y0149416D01*
X0232914Y0150672D02*
X0232914Y0149884D01*
X0235591Y0150672D02*
X0235591Y0149884D01*
X025632Y0150153D02*
X025632Y0149365D01*
X0258997Y0150153D02*
X0258997Y0149365D01*
X0237933Y0150672D02*
X0237933Y0149884D01*
X0240611Y0150672D02*
X0240611Y0149884D01*
X0261438Y0150153D02*
X0261438Y0149365D01*
X0264115Y0150153D02*
X0264115Y0149365D01*
X027189Y0150204D02*
X027189Y0149416D01*
X0274567Y0150204D02*
X0274567Y0149416D01*
X0250965Y0150153D02*
X0250965Y0149365D01*
X0253642Y0150153D02*
X0253642Y0149365D01*
X0237304Y0181149D02*
X0238091Y0181149D01*
X0237304Y0183826D02*
X0238091Y0183826D01*
X0231497Y0178609D02*
X0232284Y0178609D01*
X0231497Y0175932D02*
X0232284Y0175932D01*
X0242028Y0178609D02*
X0242815Y0178609D01*
X0242028Y0175932D02*
X0242815Y0175932D01*
X023054Y0150672D02*
X023054Y0149884D01*
X0227863Y0150672D02*
X0227863Y0149884D01*
X0016988Y0186364D02*
Y0189435D01*
Y0186364D02*
X0022815D01*
X0016969Y0194277D02*
Y0197348D01*
X0022795D01*
X0022815Y0186364D02*
Y0189435D01*
X0022795Y0194277D02*
Y0197348D01*
X0024311Y0200501D02*
Y0204438D01*
Y0200501D02*
X0053051D01*
X0024311Y0222155D02*
Y0226092D01*
X0053051Y0200501D02*
Y0204438D01*
X0024311Y0226092D02*
X0053051D01*
Y0222155D02*
Y0226092D01*
X0043317Y0191639D02*
X0043317Y0190852D01*
X004064Y0191639D02*
X004064Y0190852D01*
X0006929Y0192107D02*
X0006929Y019132D01*
X0009606Y0192107D02*
X0009606Y019132D01*
X0030335Y0191588D02*
X0030335Y0190801D01*
X0033013Y0191588D02*
X0033013Y0190801D01*
X0011949Y0192107D02*
X0011949Y019132D01*
X0014626Y0192107D02*
X0014626Y019132D01*
X0035454Y0191588D02*
X0035454Y0190801D01*
X0038131Y0191588D02*
X0038131Y0190801D01*
X0045906Y0191639D02*
X0045906Y0190852D01*
X0048583Y0191639D02*
X0048583Y0190852D01*
X002498Y0191588D02*
X002498Y0190801D01*
X0027657Y0191588D02*
X0027657Y0190801D01*
X0011319Y0222584D02*
X0012106Y0222584D01*
X0011319Y0225261D02*
X0012106Y0225261D01*
X0005512Y0220045D02*
X0006299Y0220045D01*
X0005512Y0217368D02*
X0006299Y0217368D01*
X0016043Y0220045D02*
X0016831Y0220045D01*
X0016043Y0217368D02*
X0016831Y0217368D01*
X0004556Y0192107D02*
X0004556Y019132D01*
X0001879Y0192107D02*
X0001879Y019132D01*
X0073484Y0186364D02*
Y0189435D01*
Y0186364D02*
X0079311D01*
X0073465Y0194277D02*
Y0197348D01*
X0079291D01*
X0079311Y0186364D02*
Y0189435D01*
X0079291Y0194277D02*
Y0197348D01*
X0080807Y0200501D02*
Y0204438D01*
Y0200501D02*
X0109547D01*
X0080807Y0222155D02*
Y0226092D01*
X0109547Y0200501D02*
Y0204438D01*
X0080807Y0226092D02*
X0109547D01*
Y0222155D02*
Y0226092D01*
X0099813Y0191639D02*
X0099813Y0190852D01*
X0097136Y0191639D02*
X0097136Y0190852D01*
X0063425Y0192107D02*
X0063425Y019132D01*
X0066102Y0192107D02*
X0066102Y019132D01*
X0086831Y0191588D02*
X0086831Y0190801D01*
X0089509Y0191588D02*
X0089509Y0190801D01*
X0068445Y0192107D02*
X0068445Y019132D01*
X0071122Y0192107D02*
X0071122Y019132D01*
X009195Y0191588D02*
X009195Y0190801D01*
X0094627Y0191588D02*
X0094627Y0190801D01*
X0102402Y0191639D02*
X0102402Y0190852D01*
X0105079Y0191639D02*
X0105079Y0190852D01*
X0081476Y0191588D02*
X0081476Y0190801D01*
X0084154Y0191588D02*
X0084154Y0190801D01*
X0067815Y0222584D02*
X0068603Y0222584D01*
X0067815Y0225261D02*
X0068603Y0225261D01*
X0062008Y0220045D02*
X0062795Y0220045D01*
X0062008Y0217368D02*
X0062795Y0217368D01*
X0072539Y0220045D02*
X0073327Y0220045D01*
X0072539Y0217368D02*
X0073327Y0217368D01*
X0061052Y0192107D02*
X0061052Y019132D01*
X0058375Y0192107D02*
X0058375Y019132D01*
X0129981Y0186364D02*
Y0189435D01*
Y0186364D02*
X0135807D01*
X0129961Y0194277D02*
Y0197348D01*
X0135788D01*
X0135807Y0186364D02*
Y0189435D01*
X0135788Y0194277D02*
Y0197348D01*
X0137303Y0200501D02*
Y0204438D01*
Y0200501D02*
X0166043D01*
X0137303Y0222155D02*
Y0226092D01*
X0166043Y0200501D02*
Y0204438D01*
X0137303Y0226092D02*
X0166043D01*
Y0222155D02*
Y0226092D01*
X0156309Y0191639D02*
X0156309Y0190852D01*
X0153632Y0191639D02*
X0153632Y0190852D01*
X0119922Y0192107D02*
X0119922Y019132D01*
X0122599Y0192107D02*
X0122599Y019132D01*
X0143328Y0191588D02*
X0143328Y0190801D01*
X0146005Y0191588D02*
X0146005Y0190801D01*
X0124941Y0192107D02*
X0124941Y019132D01*
X0127618Y0192107D02*
X0127618Y019132D01*
X0148446Y0191588D02*
X0148446Y0190801D01*
X0151123Y0191588D02*
X0151123Y0190801D01*
X0158898Y0191639D02*
X0158898Y0190852D01*
X0161575Y0191639D02*
X0161575Y0190852D01*
X0137973Y0191588D02*
X0137973Y0190801D01*
X014065Y0191588D02*
X014065Y0190801D01*
X0124311Y0222584D02*
X0125099Y0222584D01*
X0124311Y0225261D02*
X0125099Y0225261D01*
X0118504Y0220045D02*
X0119292Y0220045D01*
X0118504Y0217368D02*
X0119292Y0217368D01*
X0129036Y0220045D02*
X0129823Y0220045D01*
X0129036Y0217368D02*
X0129823Y0217368D01*
X0117548Y0192107D02*
X0117548Y019132D01*
X0114871Y0192107D02*
X0114871Y019132D01*
X0186477Y0186364D02*
Y0189435D01*
Y0186364D02*
X0192304D01*
X0186457Y0194277D02*
Y0197348D01*
X0192284D01*
X0192304Y0186364D02*
Y0189435D01*
X0192284Y0194277D02*
Y0197348D01*
X0193799Y0200501D02*
Y0204438D01*
Y0200501D02*
X022254D01*
X0193799Y0222155D02*
Y0226092D01*
X022254Y0200501D02*
Y0204438D01*
X0193799Y0226092D02*
X022254D01*
Y0222155D02*
Y0226092D01*
X0212806Y0191639D02*
X0212806Y0190852D01*
X0210128Y0191639D02*
X0210128Y0190852D01*
X0176418Y0192107D02*
X0176418Y019132D01*
X0179095Y0192107D02*
X0179095Y019132D01*
X0199824Y0191588D02*
X0199824Y0190801D01*
X0202501Y0191588D02*
X0202501Y0190801D01*
X0181437Y0192107D02*
X0181437Y019132D01*
X0184115Y0192107D02*
X0184115Y019132D01*
X0204942Y0191588D02*
X0204942Y0190801D01*
X0207619Y0191588D02*
X0207619Y0190801D01*
X0215394Y0191639D02*
X0215394Y0190852D01*
X0218071Y0191639D02*
X0218071Y0190852D01*
X0194469Y0191588D02*
X0194469Y0190801D01*
X0197146Y0191588D02*
X0197146Y0190801D01*
X0180807Y0222584D02*
X0181595Y0222584D01*
X0180807Y0225261D02*
X0181595Y0225261D01*
X0175Y0220045D02*
X0175788Y0220045D01*
X0175Y0217368D02*
X0175788Y0217368D01*
X0185532Y0220045D02*
X0186319Y0220045D01*
X0185532Y0217368D02*
X0186319Y0217368D01*
X0174044Y0192107D02*
X0174044Y019132D01*
X0171367Y0192107D02*
X0171367Y019132D01*
X0242973Y0186364D02*
Y0189435D01*
Y0186364D02*
X02488D01*
X0242953Y0194277D02*
Y0197348D01*
X024878D01*
X02488Y0186364D02*
Y0189435D01*
X024878Y0194277D02*
Y0197348D01*
X0250296Y0200501D02*
Y0204438D01*
Y0200501D02*
X0279036D01*
X0250296Y0222155D02*
Y0226092D01*
X0279036Y0200501D02*
Y0204438D01*
X0250296Y0226092D02*
X0279036D01*
Y0222155D02*
Y0226092D01*
X0269302Y0191639D02*
X0269302Y0190852D01*
X0266624Y0191639D02*
X0266624Y0190852D01*
X0232914Y0192107D02*
X0232914Y019132D01*
X0235591Y0192107D02*
X0235591Y019132D01*
X025632Y0191588D02*
X025632Y0190801D01*
X0258997Y0191588D02*
X0258997Y0190801D01*
X0237933Y0192107D02*
X0237933Y019132D01*
X0240611Y0192107D02*
X0240611Y019132D01*
X0261438Y0191588D02*
X0261438Y0190801D01*
X0264115Y0191588D02*
X0264115Y0190801D01*
X027189Y0191639D02*
X027189Y0190852D01*
X0274567Y0191639D02*
X0274567Y0190852D01*
X0250965Y0191588D02*
X0250965Y0190801D01*
X0253642Y0191588D02*
X0253642Y0190801D01*
X0237304Y0222584D02*
X0238091Y0222584D01*
X0237304Y0225261D02*
X0238091Y0225261D01*
X0231497Y0220045D02*
X0232284Y0220045D01*
X0231497Y0217368D02*
X0232284Y0217368D01*
X0242028Y0220045D02*
X0242815Y0220045D01*
X0242028Y0217368D02*
X0242815Y0217368D01*
X023054Y0192107D02*
X023054Y019132D01*
X0227863Y0192107D02*
X0227863Y019132D01*
X0016988Y02278D02*
Y023087D01*
Y02278D02*
X0022815D01*
X0016969Y0235713D02*
Y0238784D01*
X0022795D01*
X0022815Y02278D02*
Y023087D01*
X0022795Y0235713D02*
Y0238784D01*
X0024311Y0241937D02*
Y0245874D01*
Y0241937D02*
X0053051D01*
X0024311Y0263591D02*
Y0267528D01*
X0053051Y0241937D02*
Y0245874D01*
X0024311Y0267528D02*
X0053051D01*
Y0263591D02*
Y0267528D01*
X0043317Y0233075D02*
X0043317Y0232288D01*
X004064Y0233075D02*
X004064Y0232288D01*
X0006929Y0233543D02*
X0006929Y0232756D01*
X0009606Y0233543D02*
X0009606Y0232756D01*
X0030335Y0233024D02*
X0030335Y0232237D01*
X0033013Y0233024D02*
X0033013Y0232237D01*
X0011949Y0233543D02*
X0011949Y0232756D01*
X0014626Y0233543D02*
X0014626Y0232756D01*
X0035454Y0233024D02*
X0035454Y0232237D01*
X0038131Y0233024D02*
X0038131Y0232237D01*
X0045906Y0233075D02*
X0045906Y0232288D01*
X0048583Y0233075D02*
X0048583Y0232288D01*
X002498Y0233024D02*
X002498Y0232237D01*
X0027657Y0233024D02*
X0027657Y0232237D01*
X0011319Y026402D02*
X0012106Y026402D01*
X0011319Y0266697D02*
X0012106Y0266697D01*
X0005512Y0261481D02*
X0006299Y0261481D01*
X0005512Y0258804D02*
X0006299Y0258804D01*
X0016043Y0261481D02*
X0016831Y0261481D01*
X0016043Y0258804D02*
X0016831Y0258804D01*
X0004556Y0233543D02*
X0004556Y0232756D01*
X0001879Y0233543D02*
X0001879Y0232756D01*
X0073484Y02278D02*
Y023087D01*
Y02278D02*
X0079311D01*
X0073465Y0235713D02*
Y0238784D01*
X0079291D01*
X0079311Y02278D02*
Y023087D01*
X0079291Y0235713D02*
Y0238784D01*
X0080807Y0241937D02*
Y0245874D01*
Y0241937D02*
X0109547D01*
X0080807Y0263591D02*
Y0267528D01*
X0109547Y0241937D02*
Y0245874D01*
X0080807Y0267528D02*
X0109547D01*
Y0263591D02*
Y0267528D01*
X0099813Y0233075D02*
X0099813Y0232288D01*
X0097136Y0233075D02*
X0097136Y0232288D01*
X0063425Y0233543D02*
X0063425Y0232756D01*
X0066102Y0233543D02*
X0066102Y0232756D01*
X0086831Y0233024D02*
X0086831Y0232237D01*
X0089509Y0233024D02*
X0089509Y0232237D01*
X0068445Y0233543D02*
X0068445Y0232756D01*
X0071122Y0233543D02*
X0071122Y0232756D01*
X009195Y0233024D02*
X009195Y0232237D01*
X0094627Y0233024D02*
X0094627Y0232237D01*
X0102402Y0233075D02*
X0102402Y0232288D01*
X0105079Y0233075D02*
X0105079Y0232288D01*
X0081476Y0233024D02*
X0081476Y0232237D01*
X0084154Y0233024D02*
X0084154Y0232237D01*
X0067815Y026402D02*
X0068603Y026402D01*
X0067815Y0266697D02*
X0068603Y0266697D01*
X0062008Y0261481D02*
X0062795Y0261481D01*
X0062008Y0258804D02*
X0062795Y0258804D01*
X0072539Y0261481D02*
X0073327Y0261481D01*
X0072539Y0258804D02*
X0073327Y0258804D01*
X0061052Y0233543D02*
X0061052Y0232756D01*
X0058375Y0233543D02*
X0058375Y0232756D01*
X0129981Y02278D02*
Y023087D01*
Y02278D02*
X0135807D01*
X0129961Y0235713D02*
Y0238784D01*
X0135788D01*
X0135807Y02278D02*
Y023087D01*
X0135788Y0235713D02*
Y0238784D01*
X0137303Y0241937D02*
Y0245874D01*
Y0241937D02*
X0166043D01*
X0137303Y0263591D02*
Y0267528D01*
X0166043Y0241937D02*
Y0245874D01*
X0137303Y0267528D02*
X0166043D01*
Y0263591D02*
Y0267528D01*
X0156309Y0233075D02*
X0156309Y0232288D01*
X0153632Y0233075D02*
X0153632Y0232288D01*
X0119922Y0233543D02*
X0119922Y0232756D01*
X0122599Y0233543D02*
X0122599Y0232756D01*
X0143328Y0233024D02*
X0143328Y0232237D01*
X0146005Y0233024D02*
X0146005Y0232237D01*
X0124941Y0233543D02*
X0124941Y0232756D01*
X0127618Y0233543D02*
X0127618Y0232756D01*
X0148446Y0233024D02*
X0148446Y0232237D01*
X0151123Y0233024D02*
X0151123Y0232237D01*
X0158898Y0233075D02*
X0158898Y0232288D01*
X0161575Y0233075D02*
X0161575Y0232288D01*
X0137973Y0233024D02*
X0137973Y0232237D01*
X014065Y0233024D02*
X014065Y0232237D01*
X0124311Y026402D02*
X0125099Y026402D01*
X0124311Y0266697D02*
X0125099Y0266697D01*
X0118504Y0261481D02*
X0119292Y0261481D01*
X0118504Y0258804D02*
X0119292Y0258804D01*
X0129036Y0261481D02*
X0129823Y0261481D01*
X0129036Y0258804D02*
X0129823Y0258804D01*
X0117548Y0233543D02*
X0117548Y0232756D01*
X0114871Y0233543D02*
X0114871Y0232756D01*
X0186477Y02278D02*
Y023087D01*
Y02278D02*
X0192304D01*
X0186457Y0235713D02*
Y0238784D01*
X0192284D01*
X0192304Y02278D02*
Y023087D01*
X0192284Y0235713D02*
Y0238784D01*
X0193799Y0241937D02*
Y0245874D01*
Y0241937D02*
X022254D01*
X0193799Y0263591D02*
Y0267528D01*
X022254Y0241937D02*
Y0245874D01*
X0193799Y0267528D02*
X022254D01*
Y0263591D02*
Y0267528D01*
X0212806Y0233075D02*
X0212806Y0232288D01*
X0210128Y0233075D02*
X0210128Y0232288D01*
X0176418Y0233543D02*
X0176418Y0232756D01*
X0179095Y0233543D02*
X0179095Y0232756D01*
X0199824Y0233024D02*
X0199824Y0232237D01*
X0202501Y0233024D02*
X0202501Y0232237D01*
X0181437Y0233543D02*
X0181437Y0232756D01*
X0184115Y0233543D02*
X0184115Y0232756D01*
X0204942Y0233024D02*
X0204942Y0232237D01*
X0207619Y0233024D02*
X0207619Y0232237D01*
X0215394Y0233075D02*
X0215394Y0232288D01*
X0218071Y0233075D02*
X0218071Y0232288D01*
X0194469Y0233024D02*
X0194469Y0232237D01*
X0197146Y0233024D02*
X0197146Y0232237D01*
X0180807Y026402D02*
X0181595Y026402D01*
X0180807Y0266697D02*
X0181595Y0266697D01*
X0175Y0261481D02*
X0175788Y0261481D01*
X0175Y0258804D02*
X0175788Y0258804D01*
X0185532Y0261481D02*
X0186319Y0261481D01*
X0185532Y0258804D02*
X0186319Y0258804D01*
X0174044Y0233543D02*
X0174044Y0232756D01*
X0171367Y0233543D02*
X0171367Y0232756D01*
X0242973Y02278D02*
Y023087D01*
Y02278D02*
X02488D01*
X0242953Y0235713D02*
Y0238784D01*
X024878D01*
X02488Y02278D02*
Y023087D01*
X024878Y0235713D02*
Y0238784D01*
X0250296Y0241937D02*
Y0245874D01*
Y0241937D02*
X0279036D01*
X0250296Y0263591D02*
Y0267528D01*
X0279036Y0241937D02*
Y0245874D01*
X0250296Y0267528D02*
X0279036D01*
Y0263591D02*
Y0267528D01*
X0269302Y0233075D02*
X0269302Y0232288D01*
X0266624Y0233075D02*
X0266624Y0232288D01*
X0232914Y0233543D02*
X0232914Y0232756D01*
X0235591Y0233543D02*
X0235591Y0232756D01*
X025632Y0233024D02*
X025632Y0232237D01*
X0258997Y0233024D02*
X0258997Y0232237D01*
X0237933Y0233543D02*
X0237933Y0232756D01*
X0240611Y0233543D02*
X0240611Y0232756D01*
X0261438Y0233024D02*
X0261438Y0232237D01*
X0264115Y0233024D02*
X0264115Y0232237D01*
X027189Y0233075D02*
X027189Y0232288D01*
X0274567Y0233075D02*
X0274567Y0232288D01*
X0250965Y0233024D02*
X0250965Y0232237D01*
X0253642Y0233024D02*
X0253642Y0232237D01*
X0237304Y026402D02*
X0238091Y026402D01*
X0237304Y0266697D02*
X0238091Y0266697D01*
X0231497Y0261481D02*
X0232284Y0261481D01*
X0231497Y0258804D02*
X0232284Y0258804D01*
X0242028Y0261481D02*
X0242815Y0261481D01*
X0242028Y0258804D02*
X0242815Y0258804D01*
X023054Y0233543D02*
X023054Y0232756D01*
X0227863Y0233543D02*
X0227863Y0232756D01*
D44*
X0017113Y0024853D02*
Y0027353D01*
X0022652Y0024853D02*
Y0027353D01*
X007361Y0024853D02*
Y0027353D01*
X0079148Y0024853D02*
Y0027353D01*
X0130106Y0024853D02*
Y0027353D01*
X0135644Y0024853D02*
Y0027353D01*
X0186602Y0024853D02*
Y0027353D01*
X019214Y0024853D02*
Y0027353D01*
X0243098Y0024853D02*
Y0027353D01*
X0248637Y0024853D02*
Y0027353D01*
X0017113Y0066289D02*
Y0068789D01*
X0022652Y0066289D02*
Y0068789D01*
X007361Y0066289D02*
Y0068789D01*
X0079148Y0066289D02*
Y0068789D01*
X0130106Y0066289D02*
Y0068789D01*
X0135644Y0066289D02*
Y0068789D01*
X0186602Y0066289D02*
Y0068789D01*
X019214Y0066289D02*
Y0068789D01*
X0243098Y0066289D02*
Y0068789D01*
X0248637Y0066289D02*
Y0068789D01*
X0017113Y0107725D02*
Y0110225D01*
X0022652Y0107725D02*
Y0110225D01*
X007361Y0107725D02*
Y0110225D01*
X0079148Y0107725D02*
Y0110225D01*
X0130106Y0107725D02*
Y0110225D01*
X0135644Y0107725D02*
Y0110225D01*
X0186602Y0107725D02*
Y0110225D01*
X019214Y0107725D02*
Y0110225D01*
X0243098Y0107725D02*
Y0110225D01*
X0248637Y0107725D02*
Y0110225D01*
X0017113Y014916D02*
Y015166D01*
X0022652Y014916D02*
Y015166D01*
X007361Y014916D02*
Y015166D01*
X0079148Y014916D02*
Y015166D01*
X0130106Y014916D02*
Y015166D01*
X0135644Y014916D02*
Y015166D01*
X0186602Y014916D02*
Y015166D01*
X019214Y014916D02*
Y015166D01*
X0243098Y014916D02*
Y015166D01*
X0248637Y014916D02*
Y015166D01*
X0017113Y0190596D02*
Y0193096D01*
X0022652Y0190596D02*
Y0193096D01*
X007361Y0190596D02*
Y0193096D01*
X0079148Y0190596D02*
Y0193096D01*
X0130106Y0190596D02*
Y0193096D01*
X0135644Y0190596D02*
Y0193096D01*
X0186602Y0190596D02*
Y0193096D01*
X019214Y0190596D02*
Y0193096D01*
X0243098Y0190596D02*
Y0193096D01*
X0248637Y0190596D02*
Y0193096D01*
X0017113Y0232032D02*
Y0234532D01*
X0022652Y0232032D02*
Y0234532D01*
X007361Y0232032D02*
Y0234532D01*
X0079148Y0232032D02*
Y0234532D01*
X0130106Y0232032D02*
Y0234532D01*
X0135644Y0232032D02*
Y0234532D01*
X0186602Y0232032D02*
Y0234532D01*
X019214Y0232032D02*
Y0234532D01*
X0243098Y0232032D02*
Y0234532D01*
X0248637Y0232032D02*
Y0234532D01*
M02*
