G04*
G04 #@! TF.GenerationSoftware,Altium Limited,Altium Designer,23.5.1 (21)*
G04*
G04 Layer_Color=16711935*
%FSTAX25Y25*%
%MOIN*%
G70*
G04*
G04 #@! TF.SameCoordinates,755BC27C-C67A-4D62-9883-C884FE973DC9*
G04*
G04*
G04 #@! TF.FilePolarity,Positive*
G04*
G01*
G75*
%ADD57C,0.00394*%
D57*
X0008504Y0047216D02*
X0015197D01*
X0008504Y0035405D02*
X0015197D01*
X0008504D02*
Y0047216D01*
X0015197Y0035405D02*
Y0047216D01*
X0065D02*
X0071693D01*
X0065Y0035405D02*
X0071693D01*
X0065D02*
Y0047216D01*
X0071693Y0035405D02*
Y0047216D01*
X0121496D02*
X0128189D01*
X0121496Y0035405D02*
X0128189D01*
X0121496D02*
Y0047216D01*
X0128189Y0035405D02*
Y0047216D01*
X0177992D02*
X0184685D01*
X0177992Y0035405D02*
X0184685D01*
X0177992D02*
Y0047216D01*
X0184685Y0035405D02*
Y0047216D01*
X0234489D02*
X0241181D01*
X0234489Y0035405D02*
X0241181D01*
X0234489D02*
Y0047216D01*
X0241181Y0035405D02*
Y0047216D01*
X0008504Y0088651D02*
X0015197D01*
X0008504Y007684D02*
X0015197D01*
X0008504D02*
Y0088651D01*
X0015197Y007684D02*
Y0088651D01*
X0065D02*
X0071693D01*
X0065Y007684D02*
X0071693D01*
X0065D02*
Y0088651D01*
X0071693Y007684D02*
Y0088651D01*
X0121496D02*
X0128189D01*
X0121496Y007684D02*
X0128189D01*
X0121496D02*
Y0088651D01*
X0128189Y007684D02*
Y0088651D01*
X0177992D02*
X0184685D01*
X0177992Y007684D02*
X0184685D01*
X0177992D02*
Y0088651D01*
X0184685Y007684D02*
Y0088651D01*
X0234489D02*
X0241181D01*
X0234489Y007684D02*
X0241181D01*
X0234489D02*
Y0088651D01*
X0241181Y007684D02*
Y0088651D01*
X0008504Y0130087D02*
X0015197D01*
X0008504Y0118276D02*
X0015197D01*
X0008504D02*
Y0130087D01*
X0015197Y0118276D02*
Y0130087D01*
X0065D02*
X0071693D01*
X0065Y0118276D02*
X0071693D01*
X0065D02*
Y0130087D01*
X0071693Y0118276D02*
Y0130087D01*
X0121496D02*
X0128189D01*
X0121496Y0118276D02*
X0128189D01*
X0121496D02*
Y0130087D01*
X0128189Y0118276D02*
Y0130087D01*
X0177992D02*
X0184685D01*
X0177992Y0118276D02*
X0184685D01*
X0177992D02*
Y0130087D01*
X0184685Y0118276D02*
Y0130087D01*
X0234489D02*
X0241181D01*
X0234489Y0118276D02*
X0241181D01*
X0234489D02*
Y0130087D01*
X0241181Y0118276D02*
Y0130087D01*
X0008504Y0171523D02*
X0015197D01*
X0008504Y0159712D02*
X0015197D01*
X0008504D02*
Y0171523D01*
X0015197Y0159712D02*
Y0171523D01*
X0065D02*
X0071693D01*
X0065Y0159712D02*
X0071693D01*
X0065D02*
Y0171523D01*
X0071693Y0159712D02*
Y0171523D01*
X0121496D02*
X0128189D01*
X0121496Y0159712D02*
X0128189D01*
X0121496D02*
Y0171523D01*
X0128189Y0159712D02*
Y0171523D01*
X0177992D02*
X0184685D01*
X0177992Y0159712D02*
X0184685D01*
X0177992D02*
Y0171523D01*
X0184685Y0159712D02*
Y0171523D01*
X0234489D02*
X0241181D01*
X0234489Y0159712D02*
X0241181D01*
X0234489D02*
Y0171523D01*
X0241181Y0159712D02*
Y0171523D01*
X0008504Y0212958D02*
X0015197D01*
X0008504Y0201147D02*
X0015197D01*
X0008504D02*
Y0212958D01*
X0015197Y0201147D02*
Y0212958D01*
X0065D02*
X0071693D01*
X0065Y0201147D02*
X0071693D01*
X0065D02*
Y0212958D01*
X0071693Y0201147D02*
Y0212958D01*
X0121496D02*
X0128189D01*
X0121496Y0201147D02*
X0128189D01*
X0121496D02*
Y0212958D01*
X0128189Y0201147D02*
Y0212958D01*
X0177992D02*
X0184685D01*
X0177992Y0201147D02*
X0184685D01*
X0177992D02*
Y0212958D01*
X0184685Y0201147D02*
Y0212958D01*
X0234489D02*
X0241181D01*
X0234489Y0201147D02*
X0241181D01*
X0234489D02*
Y0212958D01*
X0241181Y0201147D02*
Y0212958D01*
X0008504Y0254394D02*
X0015197D01*
X0008504Y0242583D02*
X0015197D01*
X0008504D02*
Y0254394D01*
X0015197Y0242583D02*
Y0254394D01*
X0065D02*
X0071693D01*
X0065Y0242583D02*
X0071693D01*
X0065D02*
Y0254394D01*
X0071693Y0242583D02*
Y0254394D01*
X0121496D02*
X0128189D01*
X0121496Y0242583D02*
X0128189D01*
X0121496D02*
Y0254394D01*
X0128189Y0242583D02*
Y0254394D01*
X0177992D02*
X0184685D01*
X0177992Y0242583D02*
X0184685D01*
X0177992D02*
Y0254394D01*
X0184685Y0242583D02*
Y0254394D01*
X0234489D02*
X0241181D01*
X0234489Y0242583D02*
X0241181D01*
X0234489D02*
Y0254394D01*
X0241181Y0242583D02*
Y0254394D01*
M02*
