G04*
G04 #@! TF.GenerationSoftware,Altium Limited,Altium Designer,23.5.1 (21)*
G04*
G04 Layer_Color=8421504*
%FSTAX25Y25*%
%MOIN*%
G70*
G04*
G04 #@! TF.SameCoordinates,755BC27C-C67A-4D62-9883-C884FE973DC9*
G04*
G04*
G04 #@! TF.FilePolarity,Positive*
G04*
G01*
G75*
%ADD12O,0.03937X0.01575*%
%ADD13R,0.05000X0.03500*%
%ADD14R,0.08661X0.15748*%
%ADD15R,0.03150X0.02953*%
%ADD16R,0.02953X0.03150*%
D12*
X0006536Y0045149D02*
D03*
Y004259D02*
D03*
Y0040031D02*
D03*
Y0037471D02*
D03*
X0017165Y0045149D02*
D03*
Y004259D02*
D03*
Y0040031D02*
D03*
Y0037471D02*
D03*
X0063032Y0045149D02*
D03*
Y004259D02*
D03*
Y0040031D02*
D03*
Y0037471D02*
D03*
X0073662Y0045149D02*
D03*
Y004259D02*
D03*
Y0040031D02*
D03*
Y0037471D02*
D03*
X0119528Y0045149D02*
D03*
Y004259D02*
D03*
Y0040031D02*
D03*
Y0037471D02*
D03*
X0130158Y0045149D02*
D03*
Y004259D02*
D03*
Y0040031D02*
D03*
Y0037471D02*
D03*
X0176024Y0045149D02*
D03*
Y004259D02*
D03*
Y0040031D02*
D03*
Y0037471D02*
D03*
X0186654Y0045149D02*
D03*
Y004259D02*
D03*
Y0040031D02*
D03*
Y0037471D02*
D03*
X023252Y0045149D02*
D03*
Y004259D02*
D03*
Y0040031D02*
D03*
Y0037471D02*
D03*
X024315Y0045149D02*
D03*
Y004259D02*
D03*
Y0040031D02*
D03*
Y0037471D02*
D03*
X0006536Y0086584D02*
D03*
Y0084025D02*
D03*
Y0081466D02*
D03*
Y0078907D02*
D03*
X0017165Y0086584D02*
D03*
Y0084025D02*
D03*
Y0081466D02*
D03*
Y0078907D02*
D03*
X0063032Y0086584D02*
D03*
Y0084025D02*
D03*
Y0081466D02*
D03*
Y0078907D02*
D03*
X0073662Y0086584D02*
D03*
Y0084025D02*
D03*
Y0081466D02*
D03*
Y0078907D02*
D03*
X0119528Y0086584D02*
D03*
Y0084025D02*
D03*
Y0081466D02*
D03*
Y0078907D02*
D03*
X0130158Y0086584D02*
D03*
Y0084025D02*
D03*
Y0081466D02*
D03*
Y0078907D02*
D03*
X0176024Y0086584D02*
D03*
Y0084025D02*
D03*
Y0081466D02*
D03*
Y0078907D02*
D03*
X0186654Y0086584D02*
D03*
Y0084025D02*
D03*
Y0081466D02*
D03*
Y0078907D02*
D03*
X023252Y0086584D02*
D03*
Y0084025D02*
D03*
Y0081466D02*
D03*
Y0078907D02*
D03*
X024315Y0086584D02*
D03*
Y0084025D02*
D03*
Y0081466D02*
D03*
Y0078907D02*
D03*
X0006536Y012802D02*
D03*
Y0125461D02*
D03*
Y0122902D02*
D03*
Y0120343D02*
D03*
X0017165Y012802D02*
D03*
Y0125461D02*
D03*
Y0122902D02*
D03*
Y0120343D02*
D03*
X0063032Y012802D02*
D03*
Y0125461D02*
D03*
Y0122902D02*
D03*
Y0120343D02*
D03*
X0073662Y012802D02*
D03*
Y0125461D02*
D03*
Y0122902D02*
D03*
Y0120343D02*
D03*
X0119528Y012802D02*
D03*
Y0125461D02*
D03*
Y0122902D02*
D03*
Y0120343D02*
D03*
X0130158Y012802D02*
D03*
Y0125461D02*
D03*
Y0122902D02*
D03*
Y0120343D02*
D03*
X0176024Y012802D02*
D03*
Y0125461D02*
D03*
Y0122902D02*
D03*
Y0120343D02*
D03*
X0186654Y012802D02*
D03*
Y0125461D02*
D03*
Y0122902D02*
D03*
Y0120343D02*
D03*
X023252Y012802D02*
D03*
Y0125461D02*
D03*
Y0122902D02*
D03*
Y0120343D02*
D03*
X024315Y012802D02*
D03*
Y0125461D02*
D03*
Y0122902D02*
D03*
Y0120343D02*
D03*
X0006536Y0169456D02*
D03*
Y0166897D02*
D03*
Y0164338D02*
D03*
Y0161779D02*
D03*
X0017165Y0169456D02*
D03*
Y0166897D02*
D03*
Y0164338D02*
D03*
Y0161779D02*
D03*
X0063032Y0169456D02*
D03*
Y0166897D02*
D03*
Y0164338D02*
D03*
Y0161779D02*
D03*
X0073662Y0169456D02*
D03*
Y0166897D02*
D03*
Y0164338D02*
D03*
Y0161779D02*
D03*
X0119528Y0169456D02*
D03*
Y0166897D02*
D03*
Y0164338D02*
D03*
Y0161779D02*
D03*
X0130158Y0169456D02*
D03*
Y0166897D02*
D03*
Y0164338D02*
D03*
Y0161779D02*
D03*
X0176024Y0169456D02*
D03*
Y0166897D02*
D03*
Y0164338D02*
D03*
Y0161779D02*
D03*
X0186654Y0169456D02*
D03*
Y0166897D02*
D03*
Y0164338D02*
D03*
Y0161779D02*
D03*
X023252Y0169456D02*
D03*
Y0166897D02*
D03*
Y0164338D02*
D03*
Y0161779D02*
D03*
X024315Y0169456D02*
D03*
Y0166897D02*
D03*
Y0164338D02*
D03*
Y0161779D02*
D03*
X0006536Y0210892D02*
D03*
Y0208332D02*
D03*
Y0205773D02*
D03*
Y0203214D02*
D03*
X0017165Y0210892D02*
D03*
Y0208332D02*
D03*
Y0205773D02*
D03*
Y0203214D02*
D03*
X0063032Y0210892D02*
D03*
Y0208332D02*
D03*
Y0205773D02*
D03*
Y0203214D02*
D03*
X0073662Y0210892D02*
D03*
Y0208332D02*
D03*
Y0205773D02*
D03*
Y0203214D02*
D03*
X0119528Y0210892D02*
D03*
Y0208332D02*
D03*
Y0205773D02*
D03*
Y0203214D02*
D03*
X0130158Y0210892D02*
D03*
Y0208332D02*
D03*
Y0205773D02*
D03*
Y0203214D02*
D03*
X0176024Y0210892D02*
D03*
Y0208332D02*
D03*
Y0205773D02*
D03*
Y0203214D02*
D03*
X0186654Y0210892D02*
D03*
Y0208332D02*
D03*
Y0205773D02*
D03*
Y0203214D02*
D03*
X023252Y0210892D02*
D03*
Y0208332D02*
D03*
Y0205773D02*
D03*
Y0203214D02*
D03*
X024315Y0210892D02*
D03*
Y0208332D02*
D03*
Y0205773D02*
D03*
Y0203214D02*
D03*
X0006536Y0252327D02*
D03*
Y0249768D02*
D03*
Y0247209D02*
D03*
Y024465D02*
D03*
X0017165Y0252327D02*
D03*
Y0249768D02*
D03*
Y0247209D02*
D03*
Y024465D02*
D03*
X0063032Y0252327D02*
D03*
Y0249768D02*
D03*
Y0247209D02*
D03*
Y024465D02*
D03*
X0073662Y0252327D02*
D03*
Y0249768D02*
D03*
Y0247209D02*
D03*
Y024465D02*
D03*
X0119528Y0252327D02*
D03*
Y0249768D02*
D03*
Y0247209D02*
D03*
Y024465D02*
D03*
X0130158Y0252327D02*
D03*
Y0249768D02*
D03*
Y0247209D02*
D03*
Y024465D02*
D03*
X0176024Y0252327D02*
D03*
Y0249768D02*
D03*
Y0247209D02*
D03*
Y024465D02*
D03*
X0186654Y0252327D02*
D03*
Y0249768D02*
D03*
Y0247209D02*
D03*
Y024465D02*
D03*
X023252Y0252327D02*
D03*
Y0249768D02*
D03*
Y0247209D02*
D03*
Y024465D02*
D03*
X024315Y0252327D02*
D03*
Y0249768D02*
D03*
Y0247209D02*
D03*
Y024465D02*
D03*
D13*
X0019882Y0022794D02*
D03*
Y0029432D02*
D03*
X0076378Y0022794D02*
D03*
Y0029432D02*
D03*
X0132874Y0022794D02*
D03*
Y0029432D02*
D03*
X018937Y0022794D02*
D03*
Y0029432D02*
D03*
X0245866Y0022794D02*
D03*
Y0029432D02*
D03*
X0019882Y006423D02*
D03*
Y0070868D02*
D03*
X0076378Y006423D02*
D03*
Y0070868D02*
D03*
X0132874Y006423D02*
D03*
Y0070868D02*
D03*
X018937Y006423D02*
D03*
Y0070868D02*
D03*
X0245866Y006423D02*
D03*
Y0070868D02*
D03*
X0019882Y0105666D02*
D03*
Y0112303D02*
D03*
X0076378Y0105666D02*
D03*
Y0112303D02*
D03*
X0132874Y0105666D02*
D03*
Y0112303D02*
D03*
X018937Y0105666D02*
D03*
Y0112303D02*
D03*
X0245866Y0105666D02*
D03*
Y0112303D02*
D03*
X0019882Y0147101D02*
D03*
Y0153739D02*
D03*
X0076378Y0147101D02*
D03*
Y0153739D02*
D03*
X0132874Y0147101D02*
D03*
Y0153739D02*
D03*
X018937Y0147101D02*
D03*
Y0153739D02*
D03*
X0245866Y0147101D02*
D03*
Y0153739D02*
D03*
X0019882Y0188537D02*
D03*
Y0195175D02*
D03*
X0076378Y0188537D02*
D03*
Y0195175D02*
D03*
X0132874Y0188537D02*
D03*
Y0195175D02*
D03*
X018937Y0188537D02*
D03*
Y0195175D02*
D03*
X0245866Y0188537D02*
D03*
Y0195175D02*
D03*
X0019882Y0229973D02*
D03*
Y0236611D02*
D03*
X0076378Y0229973D02*
D03*
Y0236611D02*
D03*
X0132874Y0229973D02*
D03*
Y0236611D02*
D03*
X018937Y0229973D02*
D03*
Y0236611D02*
D03*
X0245866Y0229973D02*
D03*
Y0236611D02*
D03*
D14*
X0026673Y004755D02*
D03*
X0050687D02*
D03*
X0083169D02*
D03*
X0107183D02*
D03*
X0139666D02*
D03*
X0163679D02*
D03*
X0196162D02*
D03*
X0220175D02*
D03*
X0252658D02*
D03*
X0276671D02*
D03*
X0026673Y0088986D02*
D03*
X0050687D02*
D03*
X0083169D02*
D03*
X0107183D02*
D03*
X0139666D02*
D03*
X0163679D02*
D03*
X0196162D02*
D03*
X0220175D02*
D03*
X0252658D02*
D03*
X0276671D02*
D03*
X0026673Y0130422D02*
D03*
X0050687D02*
D03*
X0083169D02*
D03*
X0107183D02*
D03*
X0139666D02*
D03*
X0163679D02*
D03*
X0196162D02*
D03*
X0220175D02*
D03*
X0252658D02*
D03*
X0276671D02*
D03*
X0026673Y0171857D02*
D03*
X0050687D02*
D03*
X0083169D02*
D03*
X0107183D02*
D03*
X0139666D02*
D03*
X0163679D02*
D03*
X0196162D02*
D03*
X0220175D02*
D03*
X0252658D02*
D03*
X0276671D02*
D03*
X0026673Y0213293D02*
D03*
X0050687D02*
D03*
X0083169D02*
D03*
X0107183D02*
D03*
X0139666D02*
D03*
X0163679D02*
D03*
X0196162D02*
D03*
X0220175D02*
D03*
X0252658D02*
D03*
X0276671D02*
D03*
X0026673Y0254729D02*
D03*
X0050687D02*
D03*
X0083169D02*
D03*
X0107183D02*
D03*
X0139666D02*
D03*
X0163679D02*
D03*
X0196162D02*
D03*
X0220175D02*
D03*
X0252658D02*
D03*
X0276671D02*
D03*
D15*
X0041978Y002816D02*
D03*
X0041978Y0022845D02*
D03*
X0008268Y0023313D02*
D03*
X0008268Y0028628D02*
D03*
X0031674Y0022794D02*
D03*
X0031674Y0028109D02*
D03*
X0013287Y0023313D02*
D03*
X0013287Y0028628D02*
D03*
X0036792Y0022794D02*
D03*
X0036792Y0028109D02*
D03*
X0047244Y0022845D02*
D03*
X0047244Y002816D02*
D03*
X0026319Y0022794D02*
D03*
X0026319Y0028109D02*
D03*
X0003217Y0028628D02*
D03*
X0003217Y0023313D02*
D03*
X0098475Y002816D02*
D03*
X0098475Y0022845D02*
D03*
X0064764Y0023313D02*
D03*
X0064764Y0028628D02*
D03*
X008817Y0022794D02*
D03*
X008817Y0028109D02*
D03*
X0069784Y0023313D02*
D03*
X0069784Y0028628D02*
D03*
X0093288Y0022794D02*
D03*
X0093288Y0028109D02*
D03*
X010374Y0022845D02*
D03*
X010374Y002816D02*
D03*
X0082815Y0022794D02*
D03*
X0082815Y0028109D02*
D03*
X0059714Y0028628D02*
D03*
X0059714Y0023313D02*
D03*
X0154971Y002816D02*
D03*
X0154971Y0022845D02*
D03*
X012126Y0023313D02*
D03*
X012126Y0028628D02*
D03*
X0144666Y0022794D02*
D03*
X0144666Y0028109D02*
D03*
X012628Y0023313D02*
D03*
X012628Y0028628D02*
D03*
X0149784Y0022794D02*
D03*
X0149784Y0028109D02*
D03*
X0160237Y0022845D02*
D03*
X0160237Y002816D02*
D03*
X0139311Y0022794D02*
D03*
X0139311Y0028109D02*
D03*
X011621Y0028628D02*
D03*
X011621Y0023313D02*
D03*
X0211467Y002816D02*
D03*
X0211467Y0022845D02*
D03*
X0177756Y0023313D02*
D03*
X0177756Y0028628D02*
D03*
X0201162Y0022794D02*
D03*
X0201162Y0028109D02*
D03*
X0182776Y0023313D02*
D03*
X0182776Y0028628D02*
D03*
X0206281Y0022794D02*
D03*
X0206281Y0028109D02*
D03*
X0216733Y0022845D02*
D03*
X0216733Y002816D02*
D03*
X0195807Y0022794D02*
D03*
X0195807Y0028109D02*
D03*
X0172706Y0028628D02*
D03*
X0172706Y0023313D02*
D03*
X0267963Y002816D02*
D03*
X0267963Y0022845D02*
D03*
X0234252Y0023313D02*
D03*
X0234252Y0028628D02*
D03*
X0257659Y0022794D02*
D03*
X0257659Y0028109D02*
D03*
X0239272Y0023313D02*
D03*
X0239272Y0028628D02*
D03*
X0262777Y0022794D02*
D03*
X0262777Y0028109D02*
D03*
X0273229Y0022845D02*
D03*
X0273229Y002816D02*
D03*
X0252304Y0022794D02*
D03*
X0252304Y0028109D02*
D03*
X0229202Y0028628D02*
D03*
X0229202Y0023313D02*
D03*
X0041978Y0069596D02*
D03*
X0041978Y0064281D02*
D03*
X0008268Y0064749D02*
D03*
X0008268Y0070064D02*
D03*
X0031674Y006423D02*
D03*
X0031674Y0069545D02*
D03*
X0013287Y0064749D02*
D03*
X0013287Y0070064D02*
D03*
X0036792Y006423D02*
D03*
X0036792Y0069545D02*
D03*
X0047244Y0064281D02*
D03*
X0047244Y0069596D02*
D03*
X0026319Y006423D02*
D03*
X0026319Y0069545D02*
D03*
X0003217Y0070064D02*
D03*
X0003217Y0064749D02*
D03*
X0098475Y0069596D02*
D03*
X0098475Y0064281D02*
D03*
X0064764Y0064749D02*
D03*
X0064764Y0070064D02*
D03*
X008817Y006423D02*
D03*
X008817Y0069545D02*
D03*
X0069784Y0064749D02*
D03*
X0069784Y0070064D02*
D03*
X0093288Y006423D02*
D03*
X0093288Y0069545D02*
D03*
X010374Y0064281D02*
D03*
X010374Y0069596D02*
D03*
X0082815Y006423D02*
D03*
X0082815Y0069545D02*
D03*
X0059714Y0070064D02*
D03*
X0059714Y0064749D02*
D03*
X0154971Y0069596D02*
D03*
X0154971Y0064281D02*
D03*
X012126Y0064749D02*
D03*
X012126Y0070064D02*
D03*
X0144666Y006423D02*
D03*
X0144666Y0069545D02*
D03*
X012628Y0064749D02*
D03*
X012628Y0070064D02*
D03*
X0149784Y006423D02*
D03*
X0149784Y0069545D02*
D03*
X0160237Y0064281D02*
D03*
X0160237Y0069596D02*
D03*
X0139311Y006423D02*
D03*
X0139311Y0069545D02*
D03*
X011621Y0070064D02*
D03*
X011621Y0064749D02*
D03*
X0211467Y0069596D02*
D03*
X0211467Y0064281D02*
D03*
X0177756Y0064749D02*
D03*
X0177756Y0070064D02*
D03*
X0201162Y006423D02*
D03*
X0201162Y0069545D02*
D03*
X0182776Y0064749D02*
D03*
X0182776Y0070064D02*
D03*
X0206281Y006423D02*
D03*
X0206281Y0069545D02*
D03*
X0216733Y0064281D02*
D03*
X0216733Y0069596D02*
D03*
X0195807Y006423D02*
D03*
X0195807Y0069545D02*
D03*
X0172706Y0070064D02*
D03*
X0172706Y0064749D02*
D03*
X0267963Y0069596D02*
D03*
X0267963Y0064281D02*
D03*
X0234252Y0064749D02*
D03*
X0234252Y0070064D02*
D03*
X0257659Y006423D02*
D03*
X0257659Y0069545D02*
D03*
X0239272Y0064749D02*
D03*
X0239272Y0070064D02*
D03*
X0262777Y006423D02*
D03*
X0262777Y0069545D02*
D03*
X0273229Y0064281D02*
D03*
X0273229Y0069596D02*
D03*
X0252304Y006423D02*
D03*
X0252304Y0069545D02*
D03*
X0229202Y0070064D02*
D03*
X0229202Y0064749D02*
D03*
X0041978Y0111032D02*
D03*
X0041978Y0105717D02*
D03*
X0008268Y0106185D02*
D03*
X0008268Y01115D02*
D03*
X0031674Y0105666D02*
D03*
X0031674Y0110981D02*
D03*
X0013287Y0106185D02*
D03*
X0013287Y01115D02*
D03*
X0036792Y0105666D02*
D03*
X0036792Y0110981D02*
D03*
X0047244Y0105717D02*
D03*
X0047244Y0111032D02*
D03*
X0026319Y0105666D02*
D03*
X0026319Y0110981D02*
D03*
X0003217Y01115D02*
D03*
X0003217Y0106185D02*
D03*
X0098475Y0111032D02*
D03*
X0098475Y0105717D02*
D03*
X0064764Y0106185D02*
D03*
X0064764Y01115D02*
D03*
X008817Y0105666D02*
D03*
X008817Y0110981D02*
D03*
X0069784Y0106185D02*
D03*
X0069784Y01115D02*
D03*
X0093288Y0105666D02*
D03*
X0093288Y0110981D02*
D03*
X010374Y0105717D02*
D03*
X010374Y0111032D02*
D03*
X0082815Y0105666D02*
D03*
X0082815Y0110981D02*
D03*
X0059714Y01115D02*
D03*
X0059714Y0106185D02*
D03*
X0154971Y0111032D02*
D03*
X0154971Y0105717D02*
D03*
X012126Y0106185D02*
D03*
X012126Y01115D02*
D03*
X0144666Y0105666D02*
D03*
X0144666Y0110981D02*
D03*
X012628Y0106185D02*
D03*
X012628Y01115D02*
D03*
X0149784Y0105666D02*
D03*
X0149784Y0110981D02*
D03*
X0160237Y0105717D02*
D03*
X0160237Y0111032D02*
D03*
X0139311Y0105666D02*
D03*
X0139311Y0110981D02*
D03*
X011621Y01115D02*
D03*
X011621Y0106185D02*
D03*
X0211467Y0111032D02*
D03*
X0211467Y0105717D02*
D03*
X0177756Y0106185D02*
D03*
X0177756Y01115D02*
D03*
X0201162Y0105666D02*
D03*
X0201162Y0110981D02*
D03*
X0182776Y0106185D02*
D03*
X0182776Y01115D02*
D03*
X0206281Y0105666D02*
D03*
X0206281Y0110981D02*
D03*
X0216733Y0105717D02*
D03*
X0216733Y0111032D02*
D03*
X0195807Y0105666D02*
D03*
X0195807Y0110981D02*
D03*
X0172706Y01115D02*
D03*
X0172706Y0106185D02*
D03*
X0267963Y0111032D02*
D03*
X0267963Y0105717D02*
D03*
X0234252Y0106185D02*
D03*
X0234252Y01115D02*
D03*
X0257659Y0105666D02*
D03*
X0257659Y0110981D02*
D03*
X0239272Y0106185D02*
D03*
X0239272Y01115D02*
D03*
X0262777Y0105666D02*
D03*
X0262777Y0110981D02*
D03*
X0273229Y0105717D02*
D03*
X0273229Y0111032D02*
D03*
X0252304Y0105666D02*
D03*
X0252304Y0110981D02*
D03*
X0229202Y01115D02*
D03*
X0229202Y0106185D02*
D03*
X0041978Y0152468D02*
D03*
X0041978Y0147152D02*
D03*
X0008268Y0147621D02*
D03*
X0008268Y0152936D02*
D03*
X0031674Y0147101D02*
D03*
X0031674Y0152416D02*
D03*
X0013287Y0147621D02*
D03*
X0013287Y0152936D02*
D03*
X0036792Y0147101D02*
D03*
X0036792Y0152416D02*
D03*
X0047244Y0147152D02*
D03*
X0047244Y0152468D02*
D03*
X0026319Y0147101D02*
D03*
X0026319Y0152416D02*
D03*
X0003217Y0152936D02*
D03*
X0003217Y0147621D02*
D03*
X0098475Y0152468D02*
D03*
X0098475Y0147152D02*
D03*
X0064764Y0147621D02*
D03*
X0064764Y0152936D02*
D03*
X008817Y0147101D02*
D03*
X008817Y0152416D02*
D03*
X0069784Y0147621D02*
D03*
X0069784Y0152936D02*
D03*
X0093288Y0147101D02*
D03*
X0093288Y0152416D02*
D03*
X010374Y0147152D02*
D03*
X010374Y0152468D02*
D03*
X0082815Y0147101D02*
D03*
X0082815Y0152416D02*
D03*
X0059714Y0152936D02*
D03*
X0059714Y0147621D02*
D03*
X0154971Y0152468D02*
D03*
X0154971Y0147152D02*
D03*
X012126Y0147621D02*
D03*
X012126Y0152936D02*
D03*
X0144666Y0147101D02*
D03*
X0144666Y0152416D02*
D03*
X012628Y0147621D02*
D03*
X012628Y0152936D02*
D03*
X0149784Y0147101D02*
D03*
X0149784Y0152416D02*
D03*
X0160237Y0147152D02*
D03*
X0160237Y0152468D02*
D03*
X0139311Y0147101D02*
D03*
X0139311Y0152416D02*
D03*
X011621Y0152936D02*
D03*
X011621Y0147621D02*
D03*
X0211467Y0152468D02*
D03*
X0211467Y0147152D02*
D03*
X0177756Y0147621D02*
D03*
X0177756Y0152936D02*
D03*
X0201162Y0147101D02*
D03*
X0201162Y0152416D02*
D03*
X0182776Y0147621D02*
D03*
X0182776Y0152936D02*
D03*
X0206281Y0147101D02*
D03*
X0206281Y0152416D02*
D03*
X0216733Y0147152D02*
D03*
X0216733Y0152468D02*
D03*
X0195807Y0147101D02*
D03*
X0195807Y0152416D02*
D03*
X0172706Y0152936D02*
D03*
X0172706Y0147621D02*
D03*
X0267963Y0152468D02*
D03*
X0267963Y0147152D02*
D03*
X0234252Y0147621D02*
D03*
X0234252Y0152936D02*
D03*
X0257659Y0147101D02*
D03*
X0257659Y0152416D02*
D03*
X0239272Y0147621D02*
D03*
X0239272Y0152936D02*
D03*
X0262777Y0147101D02*
D03*
X0262777Y0152416D02*
D03*
X0273229Y0147152D02*
D03*
X0273229Y0152468D02*
D03*
X0252304Y0147101D02*
D03*
X0252304Y0152416D02*
D03*
X0229202Y0152936D02*
D03*
X0229202Y0147621D02*
D03*
X0041978Y0193903D02*
D03*
X0041978Y0188588D02*
D03*
X0008268Y0189056D02*
D03*
X0008268Y0194371D02*
D03*
X0031674Y0188537D02*
D03*
X0031674Y0193852D02*
D03*
X0013287Y0189056D02*
D03*
X0013287Y0194371D02*
D03*
X0036792Y0188537D02*
D03*
X0036792Y0193852D02*
D03*
X0047244Y0188588D02*
D03*
X0047244Y0193903D02*
D03*
X0026319Y0188537D02*
D03*
X0026319Y0193852D02*
D03*
X0003217Y0194371D02*
D03*
X0003217Y0189056D02*
D03*
X0098475Y0193903D02*
D03*
X0098475Y0188588D02*
D03*
X0064764Y0189056D02*
D03*
X0064764Y0194371D02*
D03*
X008817Y0188537D02*
D03*
X008817Y0193852D02*
D03*
X0069784Y0189056D02*
D03*
X0069784Y0194371D02*
D03*
X0093288Y0188537D02*
D03*
X0093288Y0193852D02*
D03*
X010374Y0188588D02*
D03*
X010374Y0193903D02*
D03*
X0082815Y0188537D02*
D03*
X0082815Y0193852D02*
D03*
X0059714Y0194371D02*
D03*
X0059714Y0189056D02*
D03*
X0154971Y0193903D02*
D03*
X0154971Y0188588D02*
D03*
X012126Y0189056D02*
D03*
X012126Y0194371D02*
D03*
X0144666Y0188537D02*
D03*
X0144666Y0193852D02*
D03*
X012628Y0189056D02*
D03*
X012628Y0194371D02*
D03*
X0149784Y0188537D02*
D03*
X0149784Y0193852D02*
D03*
X0160237Y0188588D02*
D03*
X0160237Y0193903D02*
D03*
X0139311Y0188537D02*
D03*
X0139311Y0193852D02*
D03*
X011621Y0194371D02*
D03*
X011621Y0189056D02*
D03*
X0211467Y0193903D02*
D03*
X0211467Y0188588D02*
D03*
X0177756Y0189056D02*
D03*
X0177756Y0194371D02*
D03*
X0201162Y0188537D02*
D03*
X0201162Y0193852D02*
D03*
X0182776Y0189056D02*
D03*
X0182776Y0194371D02*
D03*
X0206281Y0188537D02*
D03*
X0206281Y0193852D02*
D03*
X0216733Y0188588D02*
D03*
X0216733Y0193903D02*
D03*
X0195807Y0188537D02*
D03*
X0195807Y0193852D02*
D03*
X0172706Y0194371D02*
D03*
X0172706Y0189056D02*
D03*
X0267963Y0193903D02*
D03*
X0267963Y0188588D02*
D03*
X0234252Y0189056D02*
D03*
X0234252Y0194371D02*
D03*
X0257659Y0188537D02*
D03*
X0257659Y0193852D02*
D03*
X0239272Y0189056D02*
D03*
X0239272Y0194371D02*
D03*
X0262777Y0188537D02*
D03*
X0262777Y0193852D02*
D03*
X0273229Y0188588D02*
D03*
X0273229Y0193903D02*
D03*
X0252304Y0188537D02*
D03*
X0252304Y0193852D02*
D03*
X0229202Y0194371D02*
D03*
X0229202Y0189056D02*
D03*
X0041978Y0235339D02*
D03*
X0041978Y0230024D02*
D03*
X0008268Y0230492D02*
D03*
X0008268Y0235807D02*
D03*
X0031674Y0229973D02*
D03*
X0031674Y0235288D02*
D03*
X0013287Y0230492D02*
D03*
X0013287Y0235807D02*
D03*
X0036792Y0229973D02*
D03*
X0036792Y0235288D02*
D03*
X0047244Y0230024D02*
D03*
X0047244Y0235339D02*
D03*
X0026319Y0229973D02*
D03*
X0026319Y0235288D02*
D03*
X0003217Y0235807D02*
D03*
X0003217Y0230492D02*
D03*
X0098475Y0235339D02*
D03*
X0098475Y0230024D02*
D03*
X0064764Y0230492D02*
D03*
X0064764Y0235807D02*
D03*
X008817Y0229973D02*
D03*
X008817Y0235288D02*
D03*
X0069784Y0230492D02*
D03*
X0069784Y0235807D02*
D03*
X0093288Y0229973D02*
D03*
X0093288Y0235288D02*
D03*
X010374Y0230024D02*
D03*
X010374Y0235339D02*
D03*
X0082815Y0229973D02*
D03*
X0082815Y0235288D02*
D03*
X0059714Y0235807D02*
D03*
X0059714Y0230492D02*
D03*
X0154971Y0235339D02*
D03*
X0154971Y0230024D02*
D03*
X012126Y0230492D02*
D03*
X012126Y0235807D02*
D03*
X0144666Y0229973D02*
D03*
X0144666Y0235288D02*
D03*
X012628Y0230492D02*
D03*
X012628Y0235807D02*
D03*
X0149784Y0229973D02*
D03*
X0149784Y0235288D02*
D03*
X0160237Y0230024D02*
D03*
X0160237Y0235339D02*
D03*
X0139311Y0229973D02*
D03*
X0139311Y0235288D02*
D03*
X011621Y0235807D02*
D03*
X011621Y0230492D02*
D03*
X0211467Y0235339D02*
D03*
X0211467Y0230024D02*
D03*
X0177756Y0230492D02*
D03*
X0177756Y0235807D02*
D03*
X0201162Y0229973D02*
D03*
X0201162Y0235288D02*
D03*
X0182776Y0230492D02*
D03*
X0182776Y0235807D02*
D03*
X0206281Y0229973D02*
D03*
X0206281Y0235288D02*
D03*
X0216733Y0230024D02*
D03*
X0216733Y0235339D02*
D03*
X0195807Y0229973D02*
D03*
X0195807Y0235288D02*
D03*
X0172706Y0235807D02*
D03*
X0172706Y0230492D02*
D03*
X0267963Y0235339D02*
D03*
X0267963Y0230024D02*
D03*
X0234252Y0230492D02*
D03*
X0234252Y0235807D02*
D03*
X0257659Y0229973D02*
D03*
X0257659Y0235288D02*
D03*
X0239272Y0230492D02*
D03*
X0239272Y0235807D02*
D03*
X0262777Y0229973D02*
D03*
X0262777Y0235288D02*
D03*
X0273229Y0230024D02*
D03*
X0273229Y0235339D02*
D03*
X0252304Y0229973D02*
D03*
X0252304Y0235288D02*
D03*
X0229202Y0235807D02*
D03*
X0229202Y0230492D02*
D03*
D16*
X001437Y005818D02*
D03*
X0009055Y005818D02*
D03*
X0003248Y0052964D02*
D03*
X0008563Y0052964D02*
D03*
X001378Y0052964D02*
D03*
X0019094Y0052964D02*
D03*
X0070866Y005818D02*
D03*
X0065551Y005818D02*
D03*
X0059744Y0052964D02*
D03*
X0065059Y0052964D02*
D03*
X0070276Y0052964D02*
D03*
X0075591Y0052964D02*
D03*
X0127362Y005818D02*
D03*
X0122047Y005818D02*
D03*
X011624Y0052964D02*
D03*
X0121555Y0052964D02*
D03*
X0126772Y0052964D02*
D03*
X0132087Y0052964D02*
D03*
X0183859Y005818D02*
D03*
X0178544Y005818D02*
D03*
X0172737Y0052964D02*
D03*
X0178051Y0052964D02*
D03*
X0183268Y0052964D02*
D03*
X0188583Y0052964D02*
D03*
X0240355Y005818D02*
D03*
X023504Y005818D02*
D03*
X0229233Y0052964D02*
D03*
X0234548Y0052964D02*
D03*
X0239764Y0052964D02*
D03*
X0245079Y0052964D02*
D03*
X001437Y0099616D02*
D03*
X0009055Y0099616D02*
D03*
X0003248Y0094399D02*
D03*
X0008563Y0094399D02*
D03*
X001378Y0094399D02*
D03*
X0019094Y0094399D02*
D03*
X0070866Y0099616D02*
D03*
X0065551Y0099616D02*
D03*
X0059744Y0094399D02*
D03*
X0065059Y0094399D02*
D03*
X0070276Y0094399D02*
D03*
X0075591Y0094399D02*
D03*
X0127362Y0099616D02*
D03*
X0122047Y0099616D02*
D03*
X011624Y0094399D02*
D03*
X0121555Y0094399D02*
D03*
X0126772Y0094399D02*
D03*
X0132087Y0094399D02*
D03*
X0183859Y0099616D02*
D03*
X0178544Y0099616D02*
D03*
X0172737Y0094399D02*
D03*
X0178051Y0094399D02*
D03*
X0183268Y0094399D02*
D03*
X0188583Y0094399D02*
D03*
X0240355Y0099616D02*
D03*
X023504Y0099616D02*
D03*
X0229233Y0094399D02*
D03*
X0234548Y0094399D02*
D03*
X0239764Y0094399D02*
D03*
X0245079Y0094399D02*
D03*
X001437Y0141051D02*
D03*
X0009055Y0141051D02*
D03*
X0003248Y0135835D02*
D03*
X0008563Y0135835D02*
D03*
X001378Y0135835D02*
D03*
X0019094Y0135835D02*
D03*
X0070866Y0141051D02*
D03*
X0065551Y0141051D02*
D03*
X0059744Y0135835D02*
D03*
X0065059Y0135835D02*
D03*
X0070276Y0135835D02*
D03*
X0075591Y0135835D02*
D03*
X0127362Y0141051D02*
D03*
X0122047Y0141051D02*
D03*
X011624Y0135835D02*
D03*
X0121555Y0135835D02*
D03*
X0126772Y0135835D02*
D03*
X0132087Y0135835D02*
D03*
X0183859Y0141051D02*
D03*
X0178544Y0141051D02*
D03*
X0172737Y0135835D02*
D03*
X0178051Y0135835D02*
D03*
X0183268Y0135835D02*
D03*
X0188583Y0135835D02*
D03*
X0240355Y0141051D02*
D03*
X023504Y0141051D02*
D03*
X0229233Y0135835D02*
D03*
X0234548Y0135835D02*
D03*
X0239764Y0135835D02*
D03*
X0245079Y0135835D02*
D03*
X001437Y0182487D02*
D03*
X0009055Y0182487D02*
D03*
X0003248Y0177271D02*
D03*
X0008563Y0177271D02*
D03*
X001378Y0177271D02*
D03*
X0019094Y0177271D02*
D03*
X0070866Y0182487D02*
D03*
X0065551Y0182487D02*
D03*
X0059744Y0177271D02*
D03*
X0065059Y0177271D02*
D03*
X0070276Y0177271D02*
D03*
X0075591Y0177271D02*
D03*
X0127362Y0182487D02*
D03*
X0122047Y0182487D02*
D03*
X011624Y0177271D02*
D03*
X0121555Y0177271D02*
D03*
X0126772Y0177271D02*
D03*
X0132087Y0177271D02*
D03*
X0183859Y0182487D02*
D03*
X0178544Y0182487D02*
D03*
X0172737Y0177271D02*
D03*
X0178051Y0177271D02*
D03*
X0183268Y0177271D02*
D03*
X0188583Y0177271D02*
D03*
X0240355Y0182487D02*
D03*
X023504Y0182487D02*
D03*
X0229233Y0177271D02*
D03*
X0234548Y0177271D02*
D03*
X0239764Y0177271D02*
D03*
X0245079Y0177271D02*
D03*
X001437Y0223923D02*
D03*
X0009055Y0223923D02*
D03*
X0003248Y0218706D02*
D03*
X0008563Y0218706D02*
D03*
X001378Y0218706D02*
D03*
X0019094Y0218706D02*
D03*
X0070866Y0223923D02*
D03*
X0065551Y0223923D02*
D03*
X0059744Y0218706D02*
D03*
X0065059Y0218706D02*
D03*
X0070276Y0218706D02*
D03*
X0075591Y0218706D02*
D03*
X0127362Y0223923D02*
D03*
X0122047Y0223923D02*
D03*
X011624Y0218706D02*
D03*
X0121555Y0218706D02*
D03*
X0126772Y0218706D02*
D03*
X0132087Y0218706D02*
D03*
X0183859Y0223923D02*
D03*
X0178544Y0223923D02*
D03*
X0172737Y0218706D02*
D03*
X0178051Y0218706D02*
D03*
X0183268Y0218706D02*
D03*
X0188583Y0218706D02*
D03*
X0240355Y0223923D02*
D03*
X023504Y0223923D02*
D03*
X0229233Y0218706D02*
D03*
X0234548Y0218706D02*
D03*
X0239764Y0218706D02*
D03*
X0245079Y0218706D02*
D03*
X001437Y0265359D02*
D03*
X0009055Y0265359D02*
D03*
X0003248Y0260142D02*
D03*
X0008563Y0260142D02*
D03*
X001378Y0260142D02*
D03*
X0019094Y0260142D02*
D03*
X0070866Y0265359D02*
D03*
X0065551Y0265359D02*
D03*
X0059744Y0260142D02*
D03*
X0065059Y0260142D02*
D03*
X0070276Y0260142D02*
D03*
X0075591Y0260142D02*
D03*
X0127362Y0265359D02*
D03*
X0122047Y0265359D02*
D03*
X011624Y0260142D02*
D03*
X0121555Y0260142D02*
D03*
X0126772Y0260142D02*
D03*
X0132087Y0260142D02*
D03*
X0183859Y0265359D02*
D03*
X0178544Y0265359D02*
D03*
X0172737Y0260142D02*
D03*
X0178051Y0260142D02*
D03*
X0183268Y0260142D02*
D03*
X0188583Y0260142D02*
D03*
X0240355Y0265359D02*
D03*
X023504Y0265359D02*
D03*
X0229233Y0260142D02*
D03*
X0234548Y0260142D02*
D03*
X0239764Y0260142D02*
D03*
X0245079Y0260142D02*
D03*
M02*
