G04*
G04 #@! TF.GenerationSoftware,Altium Limited,Altium Designer,23.5.1 (21)*
G04*
G04 Layer_Color=1930808*
%FSTAX25Y25*%
%MOIN*%
G70*
G04*
G04 #@! TF.SameCoordinates,755BC27C-C67A-4D62-9883-C884FE973DC9*
G04*
G04*
G04 #@! TF.FilePolarity,Positive*
G04*
G01*
G75*
%ADD57C,0.00394*%
%ADD58C,0.00197*%
D57*
X001185Y0039342D02*
Y0043279D01*
X0009882Y004131D02*
X0013819D01*
X0068347Y0039342D02*
Y0043279D01*
X0066378Y004131D02*
X0070315D01*
X0124843Y0039342D02*
Y0043279D01*
X0122874Y004131D02*
X0126811D01*
X0181339Y0039342D02*
Y0043279D01*
X017937Y004131D02*
X0183307D01*
X0237835Y0039342D02*
Y0043279D01*
X0235867Y004131D02*
X0239804D01*
X001185Y0080777D02*
Y0084714D01*
X0009882Y0082746D02*
X0013819D01*
X0068347Y0080777D02*
Y0084714D01*
X0066378Y0082746D02*
X0070315D01*
X0124843Y0080777D02*
Y0084714D01*
X0122874Y0082746D02*
X0126811D01*
X0181339Y0080777D02*
Y0084714D01*
X017937Y0082746D02*
X0183307D01*
X0237835Y0080777D02*
Y0084714D01*
X0235867Y0082746D02*
X0239804D01*
X001185Y0122213D02*
Y012615D01*
X0009882Y0124181D02*
X0013819D01*
X0068347Y0122213D02*
Y012615D01*
X0066378Y0124181D02*
X0070315D01*
X0124843Y0122213D02*
Y012615D01*
X0122874Y0124181D02*
X0126811D01*
X0181339Y0122213D02*
Y012615D01*
X017937Y0124181D02*
X0183307D01*
X0237835Y0122213D02*
Y012615D01*
X0235867Y0124181D02*
X0239804D01*
X001185Y0163649D02*
Y0167586D01*
X0009882Y0165617D02*
X0013819D01*
X0068347Y0163649D02*
Y0167586D01*
X0066378Y0165617D02*
X0070315D01*
X0124843Y0163649D02*
Y0167586D01*
X0122874Y0165617D02*
X0126811D01*
X0181339Y0163649D02*
Y0167586D01*
X017937Y0165617D02*
X0183307D01*
X0237835Y0163649D02*
Y0167586D01*
X0235867Y0165617D02*
X0239804D01*
X001185Y0205084D02*
Y0209021D01*
X0009882Y0207053D02*
X0013819D01*
X0068347Y0205084D02*
Y0209021D01*
X0066378Y0207053D02*
X0070315D01*
X0124843Y0205084D02*
Y0209021D01*
X0122874Y0207053D02*
X0126811D01*
X0181339Y0205084D02*
Y0209021D01*
X017937Y0207053D02*
X0183307D01*
X0237835Y0205084D02*
Y0209021D01*
X0235867Y0207053D02*
X0239804D01*
X001185Y024652D02*
Y0250457D01*
X0009882Y0248489D02*
X0013819D01*
X0068347Y024652D02*
Y0250457D01*
X0066378Y0248489D02*
X0070315D01*
X0124843Y024652D02*
Y0250457D01*
X0122874Y0248489D02*
X0126811D01*
X0181339Y024652D02*
Y0250457D01*
X017937Y0248489D02*
X0183307D01*
X0237835Y024652D02*
Y0250457D01*
X0235867Y0248489D02*
X0239804D01*
D58*
X0003583Y00482D02*
X0020118D01*
X0003583Y003442D02*
X0020118D01*
X0003583D02*
Y00482D01*
X0020118Y003442D02*
Y00482D01*
X0060079D02*
X0076614D01*
X0060079Y003442D02*
X0076614D01*
X0060079D02*
Y00482D01*
X0076614Y003442D02*
Y00482D01*
X0116575D02*
X013311D01*
X0116575Y003442D02*
X013311D01*
X0116575D02*
Y00482D01*
X013311Y003442D02*
Y00482D01*
X0173071D02*
X0189607D01*
X0173071Y003442D02*
X0189607D01*
X0173071D02*
Y00482D01*
X0189607Y003442D02*
Y00482D01*
X0229567D02*
X0246103D01*
X0229567Y003442D02*
X0246103D01*
X0229567D02*
Y00482D01*
X0246103Y003442D02*
Y00482D01*
X0003583Y0089635D02*
X0020118D01*
X0003583Y0075856D02*
X0020118D01*
X0003583D02*
Y0089635D01*
X0020118Y0075856D02*
Y0089635D01*
X0060079D02*
X0076614D01*
X0060079Y0075856D02*
X0076614D01*
X0060079D02*
Y0089635D01*
X0076614Y0075856D02*
Y0089635D01*
X0116575D02*
X013311D01*
X0116575Y0075856D02*
X013311D01*
X0116575D02*
Y0089635D01*
X013311Y0075856D02*
Y0089635D01*
X0173071D02*
X0189607D01*
X0173071Y0075856D02*
X0189607D01*
X0173071D02*
Y0089635D01*
X0189607Y0075856D02*
Y0089635D01*
X0229567D02*
X0246103D01*
X0229567Y0075856D02*
X0246103D01*
X0229567D02*
Y0089635D01*
X0246103Y0075856D02*
Y0089635D01*
X0003583Y0131071D02*
X0020118D01*
X0003583Y0117292D02*
X0020118D01*
X0003583D02*
Y0131071D01*
X0020118Y0117292D02*
Y0131071D01*
X0060079D02*
X0076614D01*
X0060079Y0117292D02*
X0076614D01*
X0060079D02*
Y0131071D01*
X0076614Y0117292D02*
Y0131071D01*
X0116575D02*
X013311D01*
X0116575Y0117292D02*
X013311D01*
X0116575D02*
Y0131071D01*
X013311Y0117292D02*
Y0131071D01*
X0173071D02*
X0189607D01*
X0173071Y0117292D02*
X0189607D01*
X0173071D02*
Y0131071D01*
X0189607Y0117292D02*
Y0131071D01*
X0229567D02*
X0246103D01*
X0229567Y0117292D02*
X0246103D01*
X0229567D02*
Y0131071D01*
X0246103Y0117292D02*
Y0131071D01*
X0003583Y0172507D02*
X0020118D01*
X0003583Y0158727D02*
X0020118D01*
X0003583D02*
Y0172507D01*
X0020118Y0158727D02*
Y0172507D01*
X0060079D02*
X0076614D01*
X0060079Y0158727D02*
X0076614D01*
X0060079D02*
Y0172507D01*
X0076614Y0158727D02*
Y0172507D01*
X0116575D02*
X013311D01*
X0116575Y0158727D02*
X013311D01*
X0116575D02*
Y0172507D01*
X013311Y0158727D02*
Y0172507D01*
X0173071D02*
X0189607D01*
X0173071Y0158727D02*
X0189607D01*
X0173071D02*
Y0172507D01*
X0189607Y0158727D02*
Y0172507D01*
X0229567D02*
X0246103D01*
X0229567Y0158727D02*
X0246103D01*
X0229567D02*
Y0172507D01*
X0246103Y0158727D02*
Y0172507D01*
X0003583Y0213943D02*
X0020118D01*
X0003583Y0200163D02*
X0020118D01*
X0003583D02*
Y0213943D01*
X0020118Y0200163D02*
Y0213943D01*
X0060079D02*
X0076614D01*
X0060079Y0200163D02*
X0076614D01*
X0060079D02*
Y0213943D01*
X0076614Y0200163D02*
Y0213943D01*
X0116575D02*
X013311D01*
X0116575Y0200163D02*
X013311D01*
X0116575D02*
Y0213943D01*
X013311Y0200163D02*
Y0213943D01*
X0173071D02*
X0189607D01*
X0173071Y0200163D02*
X0189607D01*
X0173071D02*
Y0213943D01*
X0189607Y0200163D02*
Y0213943D01*
X0229567D02*
X0246103D01*
X0229567Y0200163D02*
X0246103D01*
X0229567D02*
Y0213943D01*
X0246103Y0200163D02*
Y0213943D01*
X0003583Y0255378D02*
X0020118D01*
X0003583Y0241599D02*
X0020118D01*
X0003583D02*
Y0255378D01*
X0020118Y0241599D02*
Y0255378D01*
X0060079D02*
X0076614D01*
X0060079Y0241599D02*
X0076614D01*
X0060079D02*
Y0255378D01*
X0076614Y0241599D02*
Y0255378D01*
X0116575D02*
X013311D01*
X0116575Y0241599D02*
X013311D01*
X0116575D02*
Y0255378D01*
X013311Y0241599D02*
Y0255378D01*
X0173071D02*
X0189607D01*
X0173071Y0241599D02*
X0189607D01*
X0173071D02*
Y0255378D01*
X0189607Y0241599D02*
Y0255378D01*
X0229567D02*
X0246103D01*
X0229567Y0241599D02*
X0246103D01*
X0229567D02*
Y0255378D01*
X0246103Y0241599D02*
Y0255378D01*
M02*
