M48
;Layer_Color=9474304
;FILE_FORMAT=2:4
INCH,LZ
;TYPE=PLATED
T1F00S00C0.0157
;TYPE=NON_PLATED
T2F00S00C0.0787
%
T01
X000659Y003308
X001093
X001606Y003427
X002008Y003426
X002638Y003653
X002982
X002344Y002279
X004459Y002285
Y006428
X002344Y006423
X00187Y005818
X000482
X001082Y004831
X001278Y004615
Y00406
X001082Y004207
X000255Y004003
X005905
X006731Y004207
X006927Y00406
Y004615
X006731Y004831
X006742Y003308
X006308
X007256Y003427
X007657Y003426
X008287Y003653
X008632
X007994Y002279
X010108Y002285
X011958Y003308
X012392
X012905Y003427
X013307Y003426
X013937Y003653
X014282
X013644Y002279
X015758Y002285
X017608Y003308
X018041
X018555Y003427
X018957Y003426
X019587Y003653
X019931
X019293Y002279
X018226Y00406
X018031Y004207
X018226Y004615
X018031Y004831
X017431Y005818
X018819
X019293Y006423
X015758Y006428
X013644Y006423
X013169Y005818
X011782
X012381Y004831
X012577Y004615
Y00406
X012381Y004207
X011554Y004003
X010108Y006428
X007994Y006423
X00752Y005818
X006132
X017204Y004003
X022853
X02368Y004207
X023876Y00406
Y004615
X02368Y004831
X023691Y003308
X023257
X024205Y003427
X024606Y003426
X025236Y003653
X025581
X024943Y002279
X027057Y002285
Y006428
X024943Y006423
X024469Y005818
X023081
X021408Y006428
Y002285
X023257Y007452
X023691
X024205Y007571
X024606Y00757
X025236Y007796
X025581
X023876Y008203
X02368Y008351
X023876Y008758
X02368Y008975
X023081Y009962
X024469
X024943Y010567
X024606Y011713
X024205Y011715
X023691Y011595
X023257
X022853Y01229
X02368Y012494
X023876Y012347
Y012902
X02368Y013118
X023081Y014105
X024469
X024943Y01471
X024606Y015857
X024205Y015858
X023691Y015739
X023257
X022853Y016434
X02368Y016638
X023876Y01649
Y017045
X02368Y017262
X023081Y018249
X024469
X024943Y018854
X024606Y020001
X024205Y020002
X023691Y019882
X023257
X022853Y020577
X02368Y020781
X023876Y020634
Y021189
X02368Y021406
X023081Y022392
X024469
X024943Y022997
X027057Y023002
Y018859
X025581Y020227
X025236
Y016083
X025581
X027057Y014715
Y010572
X025581Y01194
X025236
X021408Y010572
X022853Y008147
X021408Y014715
Y018859
Y023002
X019293Y022997
X018819Y022392
X017431
X018031Y021406
X018226Y021189
Y020634
X018031Y020781
X018041Y019882
X017608
X018555Y020002
X018957Y020001
X019587Y020227
X019931
X019293Y018854
X018819Y018249
X017431
X018031Y017262
X018226Y017045
Y01649
X018031Y016638
X018041Y015739
X017608
X018555Y015858
X018957Y015857
X019587Y016083
X019931
X019293Y01471
X018819Y014105
X017431
X018031Y013118
X018226Y012902
Y012347
X018031Y012494
X018041Y011595
X017608
X018555Y011715
X018957Y011713
X019587Y01194
X019931
X019293Y010567
X018819Y009962
X017431
X018031Y008975
X018226Y008758
Y008203
X018031Y008351
X018041Y007452
X017608
X018555Y007571
X018957Y00757
X019587Y007796
X019931
X017204Y008147
X014282Y007796
X013937
X013307Y00757
X012905Y007571
X012392Y007452
X011958
X011554Y008147
X012381Y008351
X012577Y008203
Y008758
X012381Y008975
X011782Y009962
X013169
X013644Y010567
X013307Y011713
X012905Y011715
X012392Y011595
X011958
X011554Y01229
X012381Y012494
X012577Y012347
Y012902
X012381Y013118
X011782Y014105
X013169
X013644Y01471
X013307Y015857
X012905Y015858
X012392Y015739
X011958
X011554Y016434
X012381Y016638
X012577Y01649
Y017045
X012381Y017262
X011782Y018249
X013169
X013644Y018854
X013307Y020001
X012905Y020002
X012392Y019882
X011958
X011554Y020577
X012381Y020781
X012577Y020634
Y021189
X012381Y021406
X011782Y022392
X013169
X013644Y022997
X015758Y023002
X017204Y020577
X015758Y018859
X014282Y020227
X013937
Y016083
X014282
X015758Y014715
X017204Y016434
Y01229
X015758Y010572
X014282Y01194
X013937
X010108Y010572
X007994Y010567
X00752Y009962
X006132
X006731Y008975
X006927Y008758
Y008203
X006731Y008351
X006742Y007452
X006308
X007256Y007571
X007657Y00757
X008287Y007796
X008632
X005905Y008147
X006308Y011595
X006742
X007256Y011715
X007657Y011713
X008287Y01194
X008632
X006927Y012347
X006731Y012494
X006927Y012902
X006731Y013118
X006132Y014105
X00752
X007994Y01471
X007657Y015857
X007256Y015858
X006742Y015739
X006308
X005905Y016434
X006731Y016638
X006927Y01649
Y017045
X006731Y017262
X006132Y018249
X00752
X007994Y018854
X007657Y020001
X007256Y020002
X006742Y019882
X006308
X005905Y020577
X006731Y020781
X006927Y020634
Y021189
X006731Y021406
X006132Y022392
X00752
X007994Y022997
X010108Y023002
Y018859
X008632Y020227
X008287
Y016083
X008632
X010108Y014715
X005905Y01229
X004459Y010572
X002344Y010567
X00187Y009962
X000482
X001082Y008975
X001278Y008758
Y008203
X001082Y008351
X001093Y007452
X000659
X001606Y007571
X002008Y00757
X002638Y007796
X002982
X000255Y008147
X000659Y011595
X001093
X001606Y011715
X002008Y011713
X002638Y01194
X002982
X001278Y012347
X001082Y012494
X001278Y012902
X001082Y013118
X000482Y014105
X00187
X002344Y01471
X002008Y015857
X001606Y015858
X001093Y015739
X000659
X000255Y016434
X001082Y016638
X001278Y01649
Y017045
X001082Y017262
X000482Y018249
X00187
X002344Y018854
X002008Y020001
X001606Y020002
X001093Y019882
X000659
X000255Y020577
X001082Y020781
X001278Y020634
Y021189
X001082Y021406
X000482Y022392
X00187
X002344Y022997
X004459Y023002
Y018859
X002982Y020227
X002638
Y016083
X002982
X004459Y014715
X000255Y01229
X000659Y024026
X001093
X001606Y024145
X002008Y024144
X002638Y024371
X002982
X001278Y024777
X001082Y024925
X001278Y025333
X001082Y025549
X000482Y026536
X00187
X000255Y024721
X005905
X006731Y024925
X006927Y024777
Y025333
X006731Y025549
X006742Y024026
X006308
X007256Y024145
X007657Y024144
X008287Y024371
X008632
X011554Y024721
X012381Y024925
X012577Y024777
Y025333
X012381Y025549
X012392Y024026
X011958
X012905Y024145
X013307Y024144
X013937Y024371
X014282
X017204Y024721
X018031Y024925
X018226Y024777
Y025333
X018031Y025549
X018041Y024026
X017608
X018555Y024145
X018957Y024144
X019587Y024371
X019931
X018819Y026536
X017431
X013169
X011782
X00752
X006132
X023081
X024469
X02368Y025549
X023876Y025333
Y024777
X02368Y024925
X023691Y024026
X023257
X024205Y024145
X024606Y024144
X025236Y024371
X025581
X022853Y024721
T02
X001969Y000984
X02628
X001969Y027814
X02628
M30
