G04*
G04 #@! TF.GenerationSoftware,Altium Limited,Altium Designer,23.5.1 (21)*
G04*
G04 Layer_Color=16711935*
%FSTAX25Y25*%
%MOIN*%
G70*
G04*
G04 #@! TF.SameCoordinates,755BC27C-C67A-4D62-9883-C884FE973DC9*
G04*
G04*
G04 #@! TF.FilePolarity,Positive*
G04*
G01*
G75*
%ADD43C,0.00500*%
D43*
X0243111Y0287984D02*
X0282481D01*
X0243111Y0268299D02*
X0282481D01*
Y0287984D01*
X-0D02*
X003937D01*
X-0Y0268299D02*
X003937D01*
X-0D02*
Y0287984D01*
X0282481Y0D02*
Y0019685D01*
X0243111D02*
X0282481D01*
X0243111Y0D02*
X0282481D01*
X-0D02*
Y0019685D01*
X003937D01*
X-0Y0D02*
X003937D01*
X0Y0287984D02*
X0282481D01*
X0Y0D02*
Y0287984D01*
X0282481Y0D02*
Y0287984D01*
X0Y0D02*
X0282481D01*
X-0Y0019685D02*
Y0061121D01*
X0056496D01*
Y0019685D02*
Y0061121D01*
X-0Y0019685D02*
X0056496D01*
Y0061121D01*
X0112992D01*
Y0019685D02*
Y0061121D01*
X0056496Y0019685D02*
X0112992D01*
Y0061121D01*
X0169488D01*
Y0019685D02*
Y0061121D01*
X0112992Y0019685D02*
X0169488D01*
Y0061121D01*
X0225985D01*
Y0019685D02*
Y0061121D01*
X0169488Y0019685D02*
X0225985D01*
Y0061121D01*
X0282481D01*
Y0019685D02*
Y0061121D01*
X0225985Y0019685D02*
X0282481D01*
X-0Y0061121D02*
Y0102557D01*
X0056496D01*
Y0061121D02*
Y0102557D01*
X-0Y0061121D02*
X0056496D01*
Y0102557D01*
X0112992D01*
Y0061121D02*
Y0102557D01*
X0056496Y0061121D02*
X0112992D01*
Y0102557D01*
X0169488D01*
Y0061121D02*
Y0102557D01*
X0112992Y0061121D02*
X0169488D01*
Y0102557D01*
X0225985D01*
Y0061121D02*
Y0102557D01*
X0169488Y0061121D02*
X0225985D01*
Y0102557D01*
X0282481D01*
Y0061121D02*
Y0102557D01*
X0225985Y0061121D02*
X0282481D01*
X-0Y0102557D02*
Y0143992D01*
X0056496D01*
Y0102557D02*
Y0143992D01*
X-0Y0102557D02*
X0056496D01*
Y0143992D01*
X0112992D01*
Y0102557D02*
Y0143992D01*
X0056496Y0102557D02*
X0112992D01*
Y0143992D01*
X0169488D01*
Y0102557D02*
Y0143992D01*
X0112992Y0102557D02*
X0169488D01*
Y0143992D01*
X0225985D01*
Y0102557D02*
Y0143992D01*
X0169488Y0102557D02*
X0225985D01*
Y0143992D01*
X0282481D01*
Y0102557D02*
Y0143992D01*
X0225985Y0102557D02*
X0282481D01*
X-0Y0143992D02*
Y0185428D01*
X0056496D01*
Y0143992D02*
Y0185428D01*
X-0Y0143992D02*
X0056496D01*
Y0185428D01*
X0112992D01*
Y0143992D02*
Y0185428D01*
X0056496Y0143992D02*
X0112992D01*
Y0185428D01*
X0169488D01*
Y0143992D02*
Y0185428D01*
X0112992Y0143992D02*
X0169488D01*
Y0185428D01*
X0225985D01*
Y0143992D02*
Y0185428D01*
X0169488Y0143992D02*
X0225985D01*
Y0185428D01*
X0282481D01*
Y0143992D02*
Y0185428D01*
X0225985Y0143992D02*
X0282481D01*
X-0Y0185428D02*
Y0226864D01*
X0056496D01*
Y0185428D02*
Y0226864D01*
X-0Y0185428D02*
X0056496D01*
Y0226864D01*
X0112992D01*
Y0185428D02*
Y0226864D01*
X0056496Y0185428D02*
X0112992D01*
Y0226864D01*
X0169488D01*
Y0185428D02*
Y0226864D01*
X0112992Y0185428D02*
X0169488D01*
Y0226864D01*
X0225985D01*
Y0185428D02*
Y0226864D01*
X0169488Y0185428D02*
X0225985D01*
Y0226864D01*
X0282481D01*
Y0185428D02*
Y0226864D01*
X0225985Y0185428D02*
X0282481D01*
X-0Y0226864D02*
Y0268299D01*
X0056496D01*
Y0226864D02*
Y0268299D01*
X-0Y0226864D02*
X0056496D01*
Y0268299D01*
X0112992D01*
Y0226864D02*
Y0268299D01*
X0056496Y0226864D02*
X0112992D01*
Y0268299D01*
X0169488D01*
Y0226864D02*
Y0268299D01*
X0112992Y0226864D02*
X0169488D01*
Y0268299D01*
X0225985D01*
Y0226864D02*
Y0268299D01*
X0169488Y0226864D02*
X0225985D01*
Y0268299D01*
X0282481D01*
Y0226864D02*
Y0268299D01*
X0225985Y0226864D02*
X0282481D01*
M02*
